{
.appVersion = "1256";
DisplayStrings = (
ABCDAMEFGHIJKLMNOAPAQARSTUVWXYZ
);
copyright = "Copyright (C) 2019 Xiangdong Zeng";
date = "2019-08-21 03:57:35 +0000";
designer = "Xiangdong Zeng";
familyName = Aluminium;
featurePrefixes = (
{
code = "languagesystem DFLT dflt;\012";
name = Languagesystems;
}
);
features = (
{
code = "sub f f by f_f;\012sub f i by f_i;\012sub f j by f_j;\012sub f l by f_l;\012sub f f i by f_f_i;\012sub f f j by f_f_j;\012sub f f l by f_f_l;\012sub f.var f.var by f_f.var;\012sub f.var i by f_i.var;\012sub f.var j.var by f_j.var;\012sub f.var l by f_l.var;\012sub f.var f.var i by f_f_i.var;\012sub f.var f.var j.var by f_f_j.var;\012sub f.var f.var l by f_f_l.var;\012";
name = liga;
},
{
code = "sub parenleft by parenleft.case;\012sub parenright by parenright.case;\012sub hyphen by hyphen.case;\012";
name = case;
},
{
code = "sub zero by zero.tnum;\012sub one by one.tnum;\012sub two by two.tnum;\012sub three by three.tnum;\012sub four by four.tnum;\012sub five by five.tnum;\012sub six by six.tnum;\012sub seven by seven.tnum;\012sub eight by eight.tnum;\012sub nine by nine.tnum;\012";
name = tnum;
},
{
code = "sub a by a.var;\012sub f by f.var;\012sub j by j.var;\012sub jdotless by jdotless.var;\012sub r by r.var;\012sub y by y.var;\012sub f_f by f_f.var;\012sub f_i by f_i.var;\012sub f_j by f_j.var;\012sub f_l by f_l.var;\012sub f_f_i by f_f_i.var;\012sub f_f_j by f_f_j.var;\012sub f_f_l by f_f_l.var;\012";
name = ss01;
},
{
code = "sub a by a.single;\012sub g by g.single;\012";
name = ss02;
}
);
fontMaster = (
{
alignmentZones = (
"{720, 8}",
"{700, 8}",
"{500, 8}",
"{0, -8}",
"{-240, -8}"
);
ascender = 720;
capHeight = 700;
descender = -240;
id = "B8B720EE-CA8B-4072-B286-8C23F1A5F625";
visible = 1;
xHeight = 500;
}
);
glyphs = (
{
glyphname = A;
lastChange = "2019-08-24 02:46:16 +0000";
layers = (
{
hints = (
{
origin = "{1, 3}";
type = Corner;
name = _corner.serif;
},
{
origin = "{1, 0}";
scale = "{-1, 1}";
type = Corner;
name = _corner.serif;
options = 1;
},
{
origin = "{0, 4}";
type = Corner;
name = _corner.serif;
},
{
origin = "{0, 0}";
scale = "{-1, 1}";
type = Corner;
name = _corner.serif;
options = 1;
}
);
layerId = "B8B720EE-CA8B-4072-B286-8C23F1A5F625";
paths = (
{
closed = 1;
nodes = (
"313 0 LINE",
"196 708 LINE",
"176 708 LINE",
"152 578 LINE",
"243 0 LINE"
);
},
{
closed = 1;
nodes = (
"60 0 LINE",
"188 708 LINE",
"165 708 LINE",
"37 0 LINE"
);
},
{
closed = 1;
nodes = (
"210 284 LINE",
"210 300 LINE",
"102 300 LINE",
"102 284 LINE"
);
}
);
width = 350;
}
);
rightMetricsKey = "=|";
unicode = 0041;
},
{
glyphname = B;
lastChange = "2019-08-24 06:05:29 +0000";
layers = (
{
components = (
{
name = _part.uppercase1;
transform = "{1, 0, 0, 1, 80, 228}";
},
{
name = _part.uppercase1;
transform = "{1, 0, 0, -1, 80, 168}";
},
{
name = _part.uppercase1;
transform = "{1, 0, 0, 1, 68, 532}";
},
{
name = _part.uppercase1;
transform = "{1, 0, 0, -1, 68, 548}";
}
);
hints = (
{
origin = "{0, 2}";
scale = "{-1, 1}";
type = Corner;
name = _corner.serif;
options = 1;
},
{
origin = "{0, 3}";
type = Corner;
name = _corner.serif;
}
);
layerId = "B8B720EE-CA8B-4072-B286-8C23F1A5F625";
paths = (
{
closed = 1;
nodes = (
"102 0 LINE",
"102 700 LINE",
"40 700 LINE",
"40 0 LINE"
);
},
{
closed = 1;
nodes = (
"248 148 LINE",
"248 248 LINE",
"186 248 LINE",
"186 148 LINE"
);
}
);
width = 288;
}
);
leftMetricsKey = H;
rightKerningGroup = O;
rightMetricsKey = O;
unicode = 0042;
},
{
glyphname = C;
lastChange = "2019-08-24 03:25:24 +0000";
layers = (
{
components = (
{
name = _part.uppercase2;
transform = "{1, 0, 0, 1, 40, 540}";
},
{
name = _part.uppercase2;
transform = "{1, 0, 0, -1, 40, 160}";
}
);
layerId = "B8B720EE-CA8B-4072-B286-8C23F1A5F625";
paths = (
{
closed = 1;
nodes = (
"102 140 LINE",
"102 560 LINE",
"40 560 LINE",
"40 140 LINE"
);
},
{
closed = 1;
nodes = (
"248 140 LINE",
"248 180 LINE",
"186 180 LINE",
"186 140 LINE"
);
},
{
closed = 1;
nodes = (
"248 520 LINE",
"248 560 LINE",
"186 560 LINE",
"186 520 LINE"
);
}
);
width = 268;
}
);
leftMetricsKey = O;
unicode = 0043;
},
{
glyphname = D;
lastChange = "2019-08-24 06:05:36 +0000";
layers = (
{
components = (
{
name = _part.uppercase1;
transform = "{1, 0, 0, 1, 80, 532}";
},
{
name = _part.uppercase1;
transform = "{1, 0, 0, -1, 80, 168}";
}
);
hints = (
{
origin = "{0, 3}";
type = Corner;
name = _corner.serif;
},
{
origin = "{0, 2}";
scale = "{-1, 1}";
type = Corner;
name = _corner.serif;
options = 1;
}
);
layerId = "B8B720EE-CA8B-4072-B286-8C23F1A5F625";
paths = (
{
closed = 1;
nodes = (
"102 0 LINE",
"102 700 LINE",
"40 700 LINE",
"40 0 LINE"
);
},
{
closed = 1;
nodes = (
"248 148 LINE",
"248 552 LINE",
"186 552 LINE",
"186 148 LINE"
);
}
);
width = 288;
}
);
leftMetricsKey = H;
rightKerningGroup = O;
rightMetricsKey = O;
unicode = 0044;
},
{
glyphname = E;
lastChange = "2019-08-24 01:30:07 +0000";
layers = (
{
hints = (
{
origin = "{0, 3}";
scale = "{-1, 1}";
type = Corner;
name = _corner.serif;
options = 1;
},
{
origin = "{0, 4}";
type = Corner;
name = _corner.serif;
},
{
origin = "{0, 1}";
type = Corner;
name = _corner.vertserif;
},
{
origin = "{0, 6}";
scale = "{-1, 1}";
type = Corner;
name = _corner.vertserif;
options = 1;
}
);
layerId = "B8B720EE-CA8B-4072-B286-8C23F1A5F625";
paths = (
{
closed = 1;
nodes = (
"102 684 LINE",
"228 684 LINE",
"228 700 LINE",
"40 700 LINE",
"40 0 LINE",
"228 0 LINE",
"228 16 LINE",
"102 16 LINE"
);
},
{
closed = 1;
nodes = (
"98 380 LINE",
"202 380 LINE",
"202 396 LINE",
"98 396 LINE"
);
}
);
width = 248;
}
);
leftMetricsKey = H;
rightMetricsKey = C;
unicode = 0045;
},
{
glyphname = F;
lastChange = "2019-08-24 03:22:02 +0000";
layers = (
{
background = {
hints = (
{
origin = "{0, 1}";
type = Corner;
name = _corner.serif;
},
{
origin = "{0, 10}";
type = Corner;
name = _corner.vertserif;
},
{
origin = "{0, 12}";
scale = "{-1, 1}";
type = Corner;
name = _corner.serif;
options = 1;
},
{
origin = "{0, 13}";
type = Corner;
name = _corner.serif;
}
);
paths = (
{
closed = 1;
nodes = (
"248 0 LINE",
"248 180 LINE",
"186 180 LINE",
"186 16 LINE",
"102 16 LINE",
"102 380 LINE",
"242 380 LINE",
"242 396 LINE",
"102 396 LINE",
"102 684 LINE",
"248 684 LINE",
"248 700 LINE",
"40 700 LINE",
"40 0 LINE"
);
}
);
};
hints = (
{
origin = "{0, 8}";
scale = "{-1, 1}";
type = Corner;
name = _corner.serif;
options = 1;
},
{
origin = "{0, 9}";
type = Corner;
name = _corner.serif;
},
{
origin = "{0, 0}";
scale = "{-1, 1}";
type = Corner;
name = _corner.serif;
options = 1;
},
{
origin = "{0, 6}";
type = Corner;
name = _corner.vertserif;
}
);
layerId = "B8B720EE-CA8B-4072-B286-8C23F1A5F625";
paths = (
{
closed = 1;
nodes = (
"102 0 LINE",
"102 370 LINE",
"222 370 LINE",
"222 386 LINE",
"102 386 LINE",
"102 684 LINE",
"240 684 LINE",
"240 700 LINE",
"40 700 LINE",
"40 0 LINE"
);
}
);
width = 260;
}
);
leftMetricsKey = H;
unicode = 0046;
},
{
glyphname = G;
lastChange = "2019-08-24 02:03:22 +0000";
layers = (
{
layerId = "B8B720EE-CA8B-4072-B286-8C23F1A5F625";
paths = (
{
closed = 1;
nodes = (
"146 280 LINE",
"146 264 LINE",
"186 264 LINE",
"186 0 LINE",
"248 0 LINE",
"248 280 LINE"
);
},
{
closed = 1;
nodes = (
"102 140 LINE",
"102 560 LINE",
"40 560 LINE",
"40 140 LINE"
);
},
{
closed = 1;
nodes = (
"240 520 LINE",
"240 560 LINE",
"178 560 LINE",
"178 520 LINE"
);
},
{
closed = 1;
nodes = (
"102 540 LINE",
"102 590 LINE SMOOTH",
"102 629 OFFCURVE",
"102 692 OFFCURVE",
"140 692 CURVE SMOOTH",
"178 692 OFFCURVE",
"178 629 OFFCURVE",
"178 590 CURVE SMOOTH",
"178 540 LINE",
"240 540 LINE",
"240 580 LINE SMOOTH",
"240 613 OFFCURVE",
"240 708 OFFCURVE",
"140 708 CURVE SMOOTH",
"40 708 OFFCURVE",
"40 613 OFFCURVE",
"40 580 CURVE SMOOTH",
"40 540 LINE"
);
},
{
closed = 1;
nodes = (
"40 160 LINE",
"40 128 LINE SMOOTH",
"40 71 OFFCURVE",
"47 -8 OFFCURVE",
"116 -8 CURVE SMOOTH",
"167 -8 OFFCURVE",
"189 34 OFFCURVE",
"202 84 CURVE",
"202 101 LINE",
"185 44 OFFCURVE",
"164 23 OFFCURVE",
"138 23 CURVE SMOOTH",
"102 23 OFFCURVE",
"102 63 OFFCURVE",
"102 110 CURVE SMOOTH",
"102 160 LINE"
);
}
);
width = 288;
}
);
leftMetricsKey = O;
rightMetricsKey = D;
unicode = 0047;
},
{
glyphname = H;
lastChange = "2019-08-24 01:30:07 +0000";
layers = (
{
hints = (
{
origin = "{0, 8}";
type = Corner;
name = _corner.serif;
},
{
origin = "{0, 9}";
scale = "{-1, 1}";
type = Corner;
name = _corner.serif;
options = 1;
},
{
origin = "{0, 10}";
type = Corner;
name = _corner.serif;
},
{
origin = "{0, 11}";
scale = "{-1, 1}";
type = Corner;
name = _corner.serif;
options = 1;
},
{
origin = "{0, 2}";
type = Corner;
name = _corner.serif;
},
{
origin = "{0, 3}";
scale = "{-1, 1}";
type = Corner;
name = _corner.serif;
options = 1;
},
{
origin = "{0, 4}";
type = Corner;
name = _corner.serif;
},
{
origin = "{0, 5}";
scale = "{-1, 1}";
type = Corner;
name = _corner.serif;
options = 1;
}
);
layerId = "B8B720EE-CA8B-4072-B286-8C23F1A5F625";
paths = (
{
closed = 1;
nodes = (
"186 396 LINE",
"102 396 LINE",
"102 700 LINE",
"40 700 LINE",
"40 0 LINE",
"102 0 LINE",
"102 380 LINE",
"186 380 LINE",
"186 0 LINE",
"248 0 LINE",
"248 700 LINE",
"186 700 LINE"
);
}
);
width = 288;
}
);
leftMetricsKey = n;
rightMetricsKey = n;
unicode = 0048;
},
{
glyphname = I;
lastChange = "2019-08-24 01:30:07 +0000";
layers = (
{
hints = (
{
origin = "{0, 0}";
type = Corner;
name = _corner.serif;
},
{
origin = "{0, 1}";
scale = "{-1, 1}";
type = Corner;
name = _corner.serif;
options = 1;
},
{
origin = "{0, 2}";
type = Corner;
name = _corner.serif;
},
{
origin = "{0, 3}";
scale = "{-1, 1}";
type = Corner;
name = _corner.serif;
options = 1;
}
);
layerId = "B8B720EE-CA8B-4072-B286-8C23F1A5F625";
paths = (
{
closed = 1;
nodes = (
"40 0 LINE",
"102 0 LINE",
"102 700 LINE",
"40 700 LINE"
);
}
);
width = 142;
}
);
leftMetricsKey = H;
rightMetricsKey = H;
unicode = 0049;
},
{
glyphname = J;
lastChange = "2019-08-24 02:39:29 +0000";
layers = (
{
components = (
{
name = _part.uppercase2;
transform = "{1, 0, 0, -1, 40, 160}";
}
);
hints = (
{
origin = "{0, 2}";
type = Corner;
name = _corner.serif;
},
{
origin = "{0, 3}";
scale = "{-1, 1}";
type = Corner;
name = _corner.serif;
options = 1;
},
{
origin = "{1, 3}";
scale = "{-1, 1}";
type = Corner;
name = _corner.serif;
options = 1;
}
);
layerId = "B8B720EE-CA8B-4072-B286-8C23F1A5F625";
paths = (
{
closed = 1;
nodes = (
"186 140 LINE",
"248 140 LINE",
"248 700 LINE",
"186 700 LINE"
);
},
{
closed = 1;
nodes = (
"40 140 LINE",
"102 140 LINE",
"102 180 LINE",
"40 180 LINE"
);
}
);
width = 288;
}
);
rightMetricsKey = U;
unicode = 004A;
},
{
glyphname = K;
lastChange = "2019-08-24 01:30:07 +0000";
layers = (
{
background = {
hints = (
{
origin = "{0, 2}";
type = Corner;
name = _corner.serif;
},
{
origin = "{0, 3}";
scale = "{-1, 1}";
type = Corner;
name = _corner.serif;
options = 1;
},
{
origin = "{0, 4}";
type = Corner;
name = _corner.serif;
},
{
origin = "{0, 5}";
scale = "{-1, 1}";
type = Corner;
name = _corner.serif;
options = 1;
},
{
origin = "{0, 8}";
type = Corner;
name = _corner.serif;
},
{
origin = "{0, 9}";
scale = "{-1, 1}";
type = Corner;
name = _corner.serif;
options = 1;
},
{
origin = "{0, 10}";
type = Corner;
name = _corner.serif;
},
{
origin = "{0, 11}";
scale = "{-1, 1}";
type = Corner;
name = _corner.serif;
options = 1;
}
);
paths = (
{
closed = 1;
nodes = (
"186 396 LINE",
"102 396 LINE",
"102 700 LINE",
"40 700 LINE",
"40 0 LINE",
"102 0 LINE",
"102 380 LINE",
"186 380 LINE",
"186 0 LINE",
"248 0 LINE",
"248 700 LINE",
"186 700 LINE"
);
}
);
};
hints = (
{
origin = "{1, 1}";
type = Corner;
name = _corner.serif;
},
{
origin = "{1, 2}";
scale = "{-1, 1}";
type = Corner;
name = _corner.serif;
options = 1;
},
{
origin = "{1, 3}";
type = Corner;
name = _corner.serif;
},
{
origin = "{1, 0}";
scale = "{-1, 1}";
type = Corner;
name = _corner.serif;
options = 1;
},
{
origin = "{0, 3}";
type = Corner;
name = _corner.serif;
},
{
origin = "{0, 0}";
scale = "{-1, 1}";
type = Corner;
name = _corner.serif;
options = 1;
},
{
origin = "{2, 0}";
type = Corner;
name = _corner.serif;
},
{
origin = "{2, 1}";
scale = "{-1, 1}";
type = Corner;
name = _corner.serif;
options = 1;
}
);
layerId = "B8B720EE-CA8B-4072-B286-8C23F1A5F625";
paths = (
{
closed = 1;
nodes = (
"279 0 LINE",
"146 475 LINE",
"107 375 LINE",
"210 0 LINE"
);
},
{
closed = 1;
nodes = (
"102 0 LINE",
"102 700 LINE",
"40 700 LINE",
"40 0 LINE"
);
},
{
closed = 1;
nodes = (
"243 700 LINE",
"219 700 LINE",
"78 336 LINE",
"78 279 LINE"
);
}
);
width = 297;
}
);
leftMetricsKey = H;
unicode = 004B;
},
{
glyphname = L;
lastChange = "2019-08-24 03:13:08 +0000";
layers = (
{
hints = (
{
origin = "{0, 7}";
type = Corner;
name = _corner.serif;
},
{
origin = "{0, 5}";
type = Corner;
name = _corner.serif;
},
{
origin = "{0, 6}";
scale = "{-1, 1}";
type = Corner;
name = _corner.serif;
options = 1;
}
);
layerId = "B8B720EE-CA8B-4072-B286-8C23F1A5F625";
paths = (
{
closed = 1;
nodes = (
"248 0 LINE",
"248 120 LINE",
"186 120 LINE",
"186 16 LINE",
"102 16 LINE",
"102 700 LINE",
"40 700 LINE",
"40 0 LINE"
);
}
);
width = 268;
}
);
leftMetricsKey = I;
rightMetricsKey = C;
unicode = 004C;
},
{
glyphname = M;
lastChange = "2019-08-24 01:30:07 +0000";
layers = (
{
hints = (
{
origin = "{0, 0}";
scale = "{1, -1}";
type = Corner;
name = _corner.serif;
options = 1;
},
{
origin = "{0, 10}";
scale = "{-1, 1}";
type = Corner;
name = _corner.serif;
options = 1;
},
{
origin = "{0, 11}";
scale = "{-1, -1}";
type = Corner;
name = _corner.serif;
},
{
origin = "{1, 1}";
type = Corner;
name = _corner.serif;
},
{
origin = "{1, 2}";
scale = "{-1, 1}";
type = Corner;
name = _corner.serif;
options = 1;
},
{
origin = "{1, 3}";
type = Corner;
name = _corner.serif;
}
);
layerId = "B8B720EE-CA8B-4072-B286-8C23F1A5F625";
paths = (
{
closed = 1;
nodes = (
"64 0 LINE",
"64 567 LINE",
"52 567 LINE",
"199 0 LINE",
"221 0 LINE",
"371 700 LINE",
"347 700 LINE",
"221 113 LINE",
"236 113 LINE",
"84 700 LINE",
"40 700 LINE",
"40 0 LINE"
);
},
{
closed = 1;
nodes = (
"333 590 LINE",
"333 0 LINE",
"395 0 LINE",
"395 700 LINE",
"357 700 LINE"
);
}
);
width = 435;
}
);
leftMetricsKey = H;
rightMetricsKey = H;
unicode = 004D;
},
{
glyphname = N;
lastChange = "2019-08-24 01:30:07 +0000";
layers = (
{
hints = (
{
origin = "{0, 5}";
scale = "{-1, -1}";
type = Corner;
name = _corner.serif;
},
{
origin = "{0, 6}";
scale = "{1, -1}";
type = Corner;
name = _corner.serif;
options = 1;
},
{
origin = "{0, 10}";
scale = "{-1, 1}";
type = Corner;
name = _corner.serif;
options = 1;
},
{
origin = "{0, 11}";
scale = "{-1, -1}";
type = Corner;
name = _corner.serif;
},
{
origin = "{0, 0}";
scale = "{1, -1}";
type = Corner;
name = _corner.serif;
options = 1;
}
);
layerId = "B8B720EE-CA8B-4072-B286-8C23F1A5F625";
paths = (
{
closed = 1;
nodes = (
"66 0 LINE",
"66 579 LINE",
"54 579 LINE",
"228 0 LINE",
"258 0 LINE",
"258 700 LINE",
"232 700 LINE",
"232 161 LINE",
"246 161 LINE",
"84 700 LINE",
"40 700 LINE",
"40 0 LINE"
);
}
);
width = 298;
}
);
leftMetricsKey = H;
rightMetricsKey = H;
unicode = 004E;
},
{
glyphname = O;
lastChange = "2019-08-24 06:05:29 +0000";
layers = (
{
components = (
{
name = _part.uppercase2;
transform = "{1, 0, 0, -1, 40, 160}";
},
{
name = _part.uppercase2;
transform = "{1, 0, 0, 1, 40, 540}";
}
);
layerId = "B8B720EE-CA8B-4072-B286-8C23F1A5F625";
paths = (
{
closed = 1;
nodes = (
"248 140 LINE",
"248 560 LINE",
"186 560 LINE",
"186 140 LINE"
);
},
{
closed = 1;
nodes = (
"102 140 LINE",
"102 560 LINE",
"40 560 LINE",
"40 140 LINE"
);
}
);
width = 288;
}
);
rightKerningGroup = O;
rightMetricsKey = "=|";
unicode = 004F;
},
{
glyphname = P;
lastChange = "2019-08-24 03:19:37 +0000";
layers = (
{
background = {
components = (
{
name = _part.uppercase1;
transform = "{1, 0, 0, 1, 80, 228}";
},
{
name = _part.uppercase1;
transform = "{1, 0, 0, -1, 80, 168}";
},
{
name = _part.uppercase1;
transform = "{1, 0, 0, 1, 68, 532}";
},
{
name = _part.uppercase1;
transform = "{1, 0, 0, -1, 68, 548}";
}
);
hints = (
{
origin = "{0, 2}";
scale = "{-1, 1}";
type = Corner;
name = _corner.serif;
options = 1;
},
{
origin = "{0, 3}";
type = Corner;
name = _corner.serif;
}
);
paths = (
{
closed = 1;
nodes = (
"102 0 LINE",
"102 700 LINE",
"40 700 LINE",
"40 0 LINE"
);
},
{
closed = 1;
nodes = (
"248 148 LINE",
"248 248 LINE",
"186 248 LINE",
"186 148 LINE"
);
}
);
};
components = (
{
name = _part.uppercase1;
transform = "{1, 0, 0, 1, 80, 532}";
},
{
name = _part.uppercase1;
transform = "{1, 0, 0, -1, 80, 498}";
}
);
hints = (
{
origin = "{0, 2}";
scale = "{-1, 1}";
type = Corner;
name = _corner.serif;
options = 1;
},
{
origin = "{0, 3}";
type = Corner;
name = _corner.serif;
},
{
origin = "{0, 0}";
scale = "{-1, 1}";
type = Corner;
name = _corner.serif;
options = 1;
}
);
layerId = "B8B720EE-CA8B-4072-B286-8C23F1A5F625";
paths = (
{
closed = 1;
nodes = (
"102 0 LINE",
"102 700 LINE",
"40 700 LINE",
"40 0 LINE"
);
},
{
closed = 1;
nodes = (
"186 478 LINE",
"248 478 LINE",
"248 552 LINE",
"186 552 LINE"
);
}
);
width = 268;
}
);
leftMetricsKey = H;
unicode = 0050;
},
{
glyphname = Q;
lastChange = "2019-08-24 06:05:29 +0000";
layers = (
{
components = (
{
name = O;
}
);
layerId = "B8B720EE-CA8B-4072-B286-8C23F1A5F625";
paths = (
{
closed = 1;
nodes = (
"254 -114 LINE",
"173 -114 OFFCURVE",
"168 -43 OFFCURVE",
"168 0 CURVE",
"120 0 LINE",
"120 -66 OFFCURVE",
"120 -128 OFFCURVE",
"254 -128 CURVE"
);
}
);
width = 288;
}
);
leftMetricsKey = "=O";
widthMetricsKey = "=O";
rightKerningGroup = O;
unicode = 0051;
},
{
glyphname = R;
lastChange = "2019-08-24 03:27:53 +0000";
layers = (
{
components = (
{
name = _part.uppercase1;
transform = "{1, 0, 0, 1, 80, 228}";
},
{
name = _part.uppercase1;
transform = "{1, 0, 0, 1, 76, 532}";
},
{
name = _part.uppercase1;
transform = "{1, 0, 0, -1, 76, 548}";
}
);
hints = (
{
origin = "{0, 2}";
scale = "{1, -1}";
type = Corner;
name = _corner.serif;
options = 1;
},
{
origin = "{0, 3}";
scale = "{-1, -1}";
type = Corner;
name = _corner.serif;
},
{
origin = "{0, 0}";
scale = "{1, -1}";
type = Corner;
name = _corner.serif;
options = 1;
}
);
layerId = "B8B720EE-CA8B-4072-B286-8C23F1A5F625";
paths = (
{
closed = 1;
nodes = (
"102 0 LINE",
"102 700 LINE",
"40 700 LINE",
"40 0 LINE"
);
},
{
closed = 1;
nodes = (
"304 -4 LINE",
"304 12 LINE",
"248 12 OFFCURVE",
"248 57 OFFCURVE",
"248 154 CURVE SMOOTH",
"248 248 LINE",
"186 248 LINE",
"186 160 LINE SMOOTH",
"186 90 OFFCURVE",
"186 -4 OFFCURVE",
"280 -4 CURVE SMOOTH"
);
}
);
width = 294;
}
);
leftMetricsKey = H;
unicode = 0052;
},
{
glyphname = S;
lastChange = "2019-08-24 03:25:22 +0000";
layers = (
{
background = {
components = (
{
name = _part.uppercase2;
transform = "{1, 0, 0, 1, 30, 540}";
},
{
name = _part.uppercase2;
transform = "{1, 0, 0, -1, 30, 160}";
}
);
paths = (
{
closed = 1;
nodes = (
"30 140 LINE",
"92 140 LINE",
"92 180 LINE",
"30 180 LINE"
);
},
{
closed = 1;
nodes = (
"238 520 LINE",
"238 560 LINE",
"176 560 LINE",
"176 520 LINE"
);
},
{
closed = 1;
nodes = (
"238 140 LINE",
"238 160 LINE SMOOTH",
"238 283 OFFCURVE",
"92 427 OFFCURVE",
"92 560 CURVE",
"30 560 LINE",
"30 540 LINE SMOOTH",
"30 417 OFFCURVE",
"176 273 OFFCURVE",
"176 140 CURVE"
);
}
);
};
layerId = "B8B720EE-CA8B-4072-B286-8C23F1A5F625";
paths = (
{
closed = 1;
nodes = (
"59 708 OFFCURVE",
"38 665 OFFCURVE",
"38 572 CURVE SMOOTH",
"38 417 OFFCURVE",
"176 273 OFFCURVE",
"176 127 CURVE SMOOTH",
"176 43 OFFCURVE",
"170 8 OFFCURVE",
"134 8 CURVE SMOOTH",
"92 8 OFFCURVE",
"92 71 OFFCURVE",
"92 110 CURVE SMOOTH",
"92 180 LINE",
"30 180 LINE",
"30 120 LINE SMOOTH",
"30 87 OFFCURVE",
"30 -8 OFFCURVE",
"134 -8 CURVE SMOOTH",
"217 -8 OFFCURVE",
"238 47 OFFCURVE",
"238 143 CURVE SMOOTH",
"238 283 OFFCURVE",
"100 427 OFFCURVE",
"100 586 CURVE SMOOTH",
"100 657 OFFCURVE",
"106 692 OFFCURVE",
"138 692 CURVE SMOOTH",
"176 692 OFFCURVE",
"176 629 OFFCURVE",
"176 590 CURVE SMOOTH",
"176 540 LINE",
"238 540 LINE",
"238 580 LINE SMOOTH",
"238 613 OFFCURVE",
"238 708 OFFCURVE",
"138 708 CURVE SMOOTH"
);
}
);
width = 268;
}
);
unicode = 0053;
},
{
glyphname = T;
lastChange = "2019-08-24 03:37:20 +0000";
layers = (
{
hints = (
{
origin = "{0, 2}";
type = Corner;
name = _corner.serif;
},
{
origin = "{0, 3}";
scale = "{-1, 1}";
type = Corner;
name = _corner.serif;
options = 1;
},
{
origin = "{0, 0}";
scale = "{-1, 1}";
type = Corner;
name = _corner.vertserif;
options = 1;
},
{
origin = "{0, 5}";
type = Corner;
name = _corner.vertserif;
}
);
layerId = "B8B720EE-CA8B-4072-B286-8C23F1A5F625";
paths = (
{
closed = 1;
nodes = (
"-6 684 LINE",
"86 684 LINE",
"86 0 LINE",
"148 0 LINE",
"148 684 LINE",
"240 684 LINE",
"240 700 LINE",
"-6 700 LINE"
);
}
);
width = 234;
}
);
rightMetricsKey = "=|";
unicode = 0054;
},
{
glyphname = U;
lastChange = "2019-08-24 02:27:28 +0000";
layers = (
{
hints = (
{
origin = "{0, 1}";
type = Corner;
name = _corner.serif;
},
{
origin = "{0, 2}";
scale = "{-1, 1}";
type = Corner;
name = _corner.serif;
options = 1;
},
{
origin = "{1, 1}";
type = Corner;
name = _corner.serif;
},
{
origin = "{1, 2}";
scale = "{-1, 1}";
type = Corner;
name = _corner.serif;
options = 1;
}
);
layerId = "B8B720EE-CA8B-4072-B286-8C23F1A5F625";
paths = (
{
closed = 1;
nodes = (
"232 140 LINE",
"232 700 LINE",
"206 700 LINE",
"206 140 LINE"
);
},
{
closed = 1;
nodes = (
"102 140 LINE",
"102 700 LINE",
"40 700 LINE",
"40 140 LINE"
);
},
{
closed = 1;
nodes = (
"40 120 LINE SMOOTH",
"40 87 OFFCURVE",
"40 -8 OFFCURVE",
"136 -8 CURVE SMOOTH",
"232 -8 OFFCURVE",
"232 87 OFFCURVE",
"232 130 CURVE SMOOTH",
"232 160 LINE",
"206 160 LINE",
"206 126 LINE SMOOTH",
"206 83 OFFCURVE",
"195 20 OFFCURVE",
"151 20 CURVE SMOOTH",
"111 20 OFFCURVE",
"102 71 OFFCURVE",
"102 116 CURVE SMOOTH",
"102 160 LINE",
"40 160 LINE"
);
}
);
width = 272;
}
);
leftMetricsKey = H;
rightMetricsKey = H;
unicode = 0055;
},
{
glyphname = V;
lastChange = "2019-08-24 03:22:17 +0000";
layers = (
{
hints = (
{
origin = "{0, 0}";
type = Corner;
name = _corner.serif;
},
{
origin = "{0, 1}";
scale = "{-1, 1}";
type = Corner;
name = _corner.serif;
options = 1;
},
{
origin = "{0, 4}";
scale = "{-1, -1}";
type = Corner;
name = _corner.serif;
},
{
origin = "{0, 5}";
scale = "{1, -1}";
type = Corner;
name = _corner.serif;
options = 1;
}
);
layerId = "B8B720EE-CA8B-4072-B286-8C23F1A5F625";
paths = (
{
closed = 1;
nodes = (
"297 700 LINE",
"274 700 LINE",
"182 146 LINE",
"191 146 LINE",
"107 700 LINE",
"35 700 LINE",
"153 -8 LINE",
"179 -8 LINE"
);
}
);
width = 332;
}
);
leftKerningGroup = V;
rightKerningGroup = V;
rightMetricsKey = "=|";
unicode = 0056;
},
{
glyphname = X;
lastChange = "2019-08-24 01:30:07 +0000";
layers = (
{
hints = (
{
origin = "{0, 1}";
type = Corner;
name = _corner.serif;
},
{
origin = "{0, 2}";
scale = "{-1, 1}";
type = Corner;
name = _corner.serif;
options = 1;
},
{
origin = "{0, 4}";
type = Corner;
name = _corner.serif;
},
{
origin = "{0, 5}";
scale = "{-1, 1}";
type = Corner;
name = _corner.serif;
options = 1;
},
{
origin = "{1, 2}";
scale = "{-1, -1}";
type = Corner;
name = _corner.serif;
},
{
origin = "{1, 3}";
scale = "{1, -1}";
type = Corner;
name = _corner.serif;
options = 1;
},
{
origin = "{1, 6}";
scale = "{-1, -1}";
type = Corner;
name = _corner.serif;
},
{
origin = "{1, 7}";
scale = "{1, -1}";
type = Corner;
name = _corner.serif;
options = 1;
}
);
layerId = "B8B720EE-CA8B-4072-B286-8C23F1A5F625";
paths = (
{
closed = 1;
nodes = (
"125 343 LINE",
"218 0 LINE",
"286 0 LINE",
"171 404 LINE",
"90 700 LINE",
"22 700 LINE"
);
},
{
closed = 1;
nodes = (
"154 388 LINE",
"127 388 LINE",
"8 0 LINE",
"32 0 LINE",
"141 360 LINE",
"168 360 LINE",
"266 700 LINE",
"242 700 LINE"
);
}
);
width = 284;
}
);
unicode = 0058;
},
{
glyphname = Y;
lastChange = "2019-08-24 02:41:40 +0000";
layers = (
{
hints = (
{
origin = "{0, 1}";
scale = "{1, -1}";
type = Corner;
name = _corner.serif;
options = 1;
},
{
origin = "{0, 0}";
scale = "{-1, -1}";
type = Corner;
name = _corner.serif;
},
{
origin = "{0, 3}";
type = Corner;
name = _corner.serif;
},
{
origin = "{0, 4}";
scale = "{-1, 1}";
type = Corner;
name = _corner.serif;
options = 1;
},
{
origin = "{0, 7}";
scale = "{-1, -1}";
type = Corner;
name = _corner.serif;
},
{
origin = "{0, 8}";
scale = "{1, -1}";
type = Corner;
name = _corner.serif;
options = 1;
}
);
layerId = "B8B720EE-CA8B-4072-B286-8C23F1A5F625";
paths = (
{
closed = 1;
nodes = (
"203 0 LINE",
"141 0 LINE",
"141 343 LINE",
"36 700 LINE",
"104 700 LINE",
"199 375 LINE",
"184 375 LINE",
"265 700 LINE",
"287 700 LINE",
"203 364 LINE"
);
}
);
width = 323;
}
);
rightMetricsKey = "=|";
unicode = 0059;
},
{
glyphname = Z;
lastChange = "2019-08-24 01:30:07 +0000";
layers = (
{
hints = (
{
origin = "{0, 7}";
scale = "{-1, 1}";
type = Corner;
name = _corner.vertserif;
options = 1;
}
);
layerId = "B8B720EE-CA8B-4072-B286-8C23F1A5F625";
paths = (
{
closed = 1;
nodes = (
"244 0 LINE",
"244 120 LINE",
"182 120 LINE",
"182 16 LINE",
"82 16 LINE",
"252 700 LINE",
"30 700 LINE",
"30 684 LINE",
"183 684 LINE",
"10 0 LINE"
);
}
);
width = 264;
}
);
unicode = 005A;
},
{
glyphname = a;
lastChange = "2019-08-24 03:14:30 +0000";
layers = (
{
components = (
{
name = _part.mid;
piece = {
height = 60.03975;
};
transform = "{1, 0, 0, 1, 25, 0}";
}
);
hints = (
{
origin = "{0, 0}";
scale = "{1, -1}";
type = Corner;
name = _corner.serif;
options = 1;
}
);
layerId = "B8B720EE-CA8B-4072-B286-8C23F1A5F625";
paths = (
{
closed = 1;
nodes = (
"225 0 LINE",
"225 360 LINE",
"165 360 LINE",
"165 0 LINE"
);
},
{
closed = 1;
nodes = (
"225 340 LINE",
"225 380 LINE SMOOTH",
"225 413 OFFCURVE",
"225 508 OFFCURVE",
"128 508 CURVE SMOOTH",
"72 508 OFFCURVE",
"35 475 OFFCURVE",
"35 429 CURVE SMOOTH",
"35 400 OFFCURVE",
"49 386 OFFCURVE",
"69 386 CURVE",
"88 386 OFFCURVE",
"101 399 OFFCURVE",
"101 418 CURVE SMOOTH",
"101 435 OFFCURVE",
"90 448 OFFCURVE",
"74 448 CURVE SMOOTH",
"59 448 OFFCURVE",
"47 436 OFFCURVE",
"47 420 CURVE",
"51 420 LINE",
"47 464 OFFCURVE",
"77 492 OFFCURVE",
"114 492 CURVE SMOOTH",
"165 492 OFFCURVE",
"165 439 OFFCURVE",
"165 390 CURVE SMOOTH",
"165 340 LINE"
);
}
);
width = 265;
}
);
leftKerningGroup = o;
leftMetricsKey = c;
rightKerningGroup = n;
rightMetricsKey = n;
unicode = 0061;
},
{
glyphname = b;
lastChange = "2019-08-24 03:17:41 +0000";
layers = (
{
components = (
{
name = _part.mid;
transform = "{-1, 0, 0, 1, 240, 0}";
}
);
hints = (
{
origin = "{0, 2}";
scale = "{1, -1}";
type = Corner;
name = _corner.serif;
options = 1;
},
{
origin = "{0, 3}";
type = Corner;
name = _corner.serif;
}
);
layerId = "B8B720EE-CA8B-4072-B286-8C23F1A5F625";
paths = (
{
closed = 1;
nodes = (
"100 0 LINE",
"100 720 LINE",
"40 720 LINE",
"40 0 LINE"
);
}
);
width = 265;
}
);
leftKerningGroup = h;
leftMetricsKey = h;
rightKerningGroup = o;
rightMetricsKey = o;
unicode = 0062;
},
{
glyphname = c;
lastChange = "2019-08-24 03:17:41 +0000";
layers = (
{
components = (
{
name = _part.lowercase2;
transform = "{1, 0, 0, -1, 25, 160}";
},
{
name = _part.lowercase2;
transform = "{1, 0, 0, 1, 25, 340}";
}
);
layerId = "B8B720EE-CA8B-4072-B286-8C23F1A5F625";
paths = (
{
closed = 1;
nodes = (
"85 140 LINE",
"85 360 LINE",
"25 360 LINE",
"25 140 LINE"
);
}
);
width = 249;
}
);
leftKerningGroup = o;
leftMetricsKey = o;
rightKerningGroup = o;
unicode = 0063;
},
{
glyphname = d;
lastChange = "2019-08-24 01:52:34 +0000";
layers = (
{
components = (
{
name = _part.mid;
transform = "{1, 0, 0, 1, 25, 0}";
}
);
hints = (
{
origin = "{0, 0}";
scale = "{1, -1}";
type = Corner;
name = _corner.serif;
options = 1;
},
{
origin = "{0, 2}";
scale = "{1, -1}";
type = Corner;
name = _corner.serif;
options = 1;
}
);
layerId = "B8B720EE-CA8B-4072-B286-8C23F1A5F625";
paths = (
{
closed = 1;
nodes = (
"225 0 LINE",
"225 720 LINE",
"165 720 LINE",
"165 0 LINE"
);
}
);
width = 265;
}
);
leftMetricsKey = o;
rightMetricsKey = l;
unicode = 0064;
},
{
glyphname = e;
lastChange = "2019-08-24 03:17:41 +0000";
layers = (
{
components = (
{
name = _part.lowercase2;
transform = "{1, 0, 0, -1, 25, 160}";
},
{
name = _part.lowercase2;
transform = "{1, 0, 0, 1, 25, 340}";
}
);
layerId = "B8B720EE-CA8B-4072-B286-8C23F1A5F625";
paths = (
{
closed = 1;
nodes = (
"85 140 LINE",
"85 360 LINE",
"25 360 LINE",
"25 140 LINE"
);
},
{
closed = 1;
nodes = (
"225 310 LINE",
"225 360 LINE",
"165 360 LINE",
"165 326 LINE",
"75 326 LINE",
"75 310 LINE"
);
}
);
width = 250;
}
);
leftKerningGroup = o;
leftMetricsKey = o;
rightKerningGroup = o;
rightMetricsKey = o;
unicode = 0065;
},
{
glyphname = f;
lastChange = "2019-08-24 03:11:40 +0000";
layers = (
{
hints = (
{
origin = "{0, 3}";
type = Corner;
name = _corner.serif;
},
{
origin = "{0, 0}";
scale = "{-1.3, 1}";
type = Corner;
name = _corner.serif;
options = 1;
}
);
layerId = "B8B720EE-CA8B-4072-B286-8C23F1A5F625";
paths = (
{
closed = 1;
nodes = (
"120 0 LINE",
"120 580 LINE",
"60 580 LINE",
"60 0 LINE"
);
},
{
closed = 1;
nodes = (
"230 484 LINE",
"230 500 LINE",
"10 500 LINE",
"10 484 LINE"
);
},
{
closed = 1;
nodes = (
"120 560 LINE",
"120 600 LINE SMOOTH",
"120 655 OFFCURVE",
"144 712 OFFCURVE",
"193 712 CURVE SMOOTH",
"230 712 OFFCURVE",
"260 679 OFFCURVE",
"260 640 CURVE",
"266 640 LINE",
"266 654 OFFCURVE",
"259 671 OFFCURVE",
"240 671 CURVE SMOOTH",
"223 671 OFFCURVE",
"212 659 OFFCURVE",
"212 639 CURVE SMOOTH",
"212 618 OFFCURVE",
"224 604 OFFCURVE",
"244 604 CURVE",
"262 604 OFFCURVE",
"276 616 OFFCURVE",
"276 643 CURVE SMOOTH",
"276 682 OFFCURVE",
"247 728 OFFCURVE",
"179 728 CURVE SMOOTH",
"84 728 OFFCURVE",
"60 635 OFFCURVE",
"60 590 CURVE SMOOTH",
"60 560 LINE"
);
}
);
width = 210;
}
);
leftMetricsKey = t;
rightKerningGroup = f;
unicode = 0066;
},
{
glyphname = g;
lastChange = "2019-08-24 01:53:04 +0000";
layers = (
{
components = (
{
name = _part.lowercase2;
transform = "{1, 0, 0, -1, 25, 360}";
},
{
name = _part.lowercase2;
transform = "{1, 0, 0, 1, 25, 340}";
},
{
name = _part.lowercase2;
transform = "{1, 0, 0, -1, 25, -80}";
}
);
layerId = "B8B720EE-CA8B-4072-B286-8C23F1A5F625";
paths = (
{
closed = 1;
nodes = (
"225 -100 LINE",
"225 46 LINE SMOOTH",
"225 94 OFFCURVE",
"225 142 OFFCURVE",
"132 142 CURVE SMOOTH",
"83 142 OFFCURVE",
"59 142 OFFCURVE",
"59 164 CURVE SMOOTH",
"59 173 OFFCURVE",
"63 183 OFFCURVE",
"83 207 CURVE",
"75 217 LINE",
"31 185 OFFCURVE",
"25 165 OFFCURVE",
"25 148 CURVE SMOOTH",
"25 108 OFFCURVE",
"63 81 OFFCURVE",
"117 81 CURVE SMOOTH",
"165 81 OFFCURVE",
"165 59 OFFCURVE",
"165 1 CURVE SMOOTH",
"165 -100 LINE"
);
},
{
closed = 1;
nodes = (
"85 -100 LINE",
"85 0 LINE",
"25 0 LINE",
"25 -100 LINE"
);
},
{
closed = 1;
nodes = (
"166 525 OFFCURVE",
"187 555 OFFCURVE",
"227 555 CURVE",
"227 562 LINE",
"214 562 OFFCURVE",
"203 550 OFFCURVE",
"203 532 CURVE SMOOTH",
"203 513 OFFCURVE",
"214 500 OFFCURVE",
"232 500 CURVE SMOOTH",
"249 500 OFFCURVE",
"261 511 OFFCURVE",
"261 532 CURVE SMOOTH",
"261 553 OFFCURVE",
"248 568 OFFCURVE",
"222 568 CURVE SMOOTH",
"186 568 OFFCURVE",
"157 539 OFFCURVE",
"145 502 CURVE",
"156 498 LINE"
);
}
);
width = 251;
}
);
leftKerningGroup = n;
leftMetricsKey = a;
unicode = 0067;
},
{
glyphname = idotless;
lastChange = "2019-08-24 01:49:58 +0000";
layers = (
{
hints = (
{
origin = "{0, 0}";
scale = "{1, -1}";
type = Corner;
name = _corner.serif;
options = 1;
},
{
origin = "{0, 2}";
scale = "{1, -1}";
type = Corner;
name = _corner.serif;
options = 1;
},
{
origin = "{0, 3}";
scale = "{-1, -1}";
type = Corner;
name = _corner.serif;
}
);
layerId = "B8B720EE-CA8B-4072-B286-8C23F1A5F625";
paths = (
{
closed = 1;
nodes = (
"100 0 LINE",
"100 500 LINE",
"40 500 LINE",
"40 0 LINE"
);
}
);
width = 140;
}
);
leftKerningGroup = n;
leftMetricsKey = i;
rightMetricsKey = i;
unicode = 0131;
},
{
glyphname = jdotless;
lastChange = "2019-08-24 02:17:07 +0000";
layers = (
{
hints = (
{
origin = "{0, 2}";
scale = "{1, -1}";
type = Corner;
name = _corner.serif;
options = 1;
}
);
layerId = "B8B720EE-CA8B-4072-B286-8C23F1A5F625";
paths = (
{
closed = 1;
nodes = (
"110 -100 LINE",
"110 500 LINE",
"50 500 LINE",
"50 -100 LINE"
);
},
{
closed = 1;
nodes = (
"81 -248 OFFCURVE",
"110 -184 OFFCURVE",
"110 -110 CURVE SMOOTH",
"110 -80 LINE",
"50 -80 LINE",
"50 -120 LINE SMOOTH",
"50 -186 OFFCURVE",
"39 -230 OFFCURVE",
"-5 -230 CURVE SMOOTH",
"-41 -230 OFFCURVE",
"-80 -202 OFFCURVE",
"-80 -144 CURVE",
"-86 -144 LINE",
"-86 -159 OFFCURVE",
"-75 -179 OFFCURVE",
"-55 -179 CURVE SMOOTH",
"-38 -179 OFFCURVE",
"-24 -164 OFFCURVE",
"-24 -143 CURVE SMOOTH",
"-24 -121 OFFCURVE",
"-40 -104 OFFCURVE",
"-59 -104 CURVE SMOOTH",
"-78 -104 OFFCURVE",
"-96 -121 OFFCURVE",
"-96 -152 CURVE SMOOTH",
"-96 -195 OFFCURVE",
"-61 -248 OFFCURVE",
"6 -248 CURVE SMOOTH"
);
}
);
width = 150;
}
);
leftKerningGroup = n;
leftMetricsKey = j;
unicode = 0237;
},
{
glyphname = k;
lastChange = "2019-08-24 03:19:03 +0000";
layers = (
{
components = (
{
name = l;
}
);
hints = (
{
origin = "{0, 3}";
type = Corner;
name = _corner.serif;
},
{
origin = "{0, 0}";
scale = "{-1, 1}";
type = Corner;
name = _corner.serif;
options = 1;
}
);
layerId = "B8B720EE-CA8B-4072-B286-8C23F1A5F625";
paths = (
{
closed = 1;
nodes = (
"274 0 LINE",
"150 372 LINE",
"109 306 LINE",
"208 0 LINE"
);
},
{
closed = 1;
nodes = (
"228 484 LINE",
"262 484 LINE",
"262 500 LINE",
"180 500 LINE",
"180 484 LINE",
"206 484 LINE",
"77 269 LINE",
"77 234 LINE"
);
}
);
width = 258;
}
);
leftKerningGroup = h;
leftMetricsKey = h;
rightKerningGroup = x;
unicode = 006B;
},
{
glyphname = l;
lastChange = "2019-08-24 02:22:41 +0000";
layers = (
{
hints = (
{
origin = "{0, 0}";
scale = "{1, -1}";
type = Corner;
name = _corner.serif;
options = 1;
},
{
origin = "{0, 2}";
scale = "{1, -1}";
type = Corner;
name = _corner.serif;
options = 1;
},
{
origin = "{0, 3}";
scale = "{-1, -1}";
type = Corner;
name = _corner.serif;
}
);
layerId = "B8B720EE-CA8B-4072-B286-8C23F1A5F625";
paths = (
{
closed = 1;
nodes = (
"100 0 LINE",
"100 720 LINE",
"40 720 LINE",
"40 0 LINE"
);
}
);
width = 140;
}
);
leftKerningGroup = h;
leftMetricsKey = n;
rightMetricsKey = n;
unicode = 006C;
},
{
glyphname = m;
lastChange = "2019-08-24 03:14:14 +0000";
layers = (
{
background = {
paths = (
{
closed = 1;
nodes = (
"380 340 LINE",
"380 380 LINE SMOOTH",
"380 425 OFFCURVE",
"375 508 OFFCURVE",
"305 508 CURVE SMOOTH",
"255 508 OFFCURVE",
"233 466 OFFCURVE",
"220 416 CURVE",
"220 399 LINE",
"237 456 OFFCURVE",
"258 477 OFFCURVE",
"284 477 CURVE SMOOTH",
"320 477 OFFCURVE",
"320 437 OFFCURVE",
"320 390 CURVE SMOOTH",
"320 340 LINE"
);
}
);
};
components = (
{
name = n;
}
);
hints = (
{
origin = "{0, 3}";
type = Corner;
name = _corner.serif;
},
{
origin = "{0, 0}";
scale = "{-1, 1}";
type = Corner;
name = _corner.serif;
options = 1;
}
);
layerId = "B8B720EE-CA8B-4072-B286-8C23F1A5F625";
paths = (
{
closed = 1;
nodes = (
"380 0 LINE",
"380 360 LINE",
"320 360 LINE",
"320 0 LINE"
);
},
{
closed = 1;
nodes = (
"380 340 LINE",
"380 380 LINE SMOOTH",
"380 425 OFFCURVE",
"375 508 OFFCURVE",
"304 508 CURVE SMOOTH",
"267 508 OFFCURVE",
"239 486 OFFCURVE",
"220 458 CURVE",
"220 428 LINE",
"236 464 OFFCURVE",
"264 477 OFFCURVE",
"283 477 CURVE SMOOTH",
"320 477 OFFCURVE",
"320 437 OFFCURVE",
"320 390 CURVE SMOOTH",
"320 340 LINE"
);
}
);
width = 420;
}
);
leftKerningGroup = n;
leftMetricsKey = n;
rightKerningGroup = n;
rightMetricsKey = n;
unicode = 006D;
},
{
glyphname = o;
lastChange = "2019-08-24 03:17:54 +0000";
layers = (
{
components = (
{
name = _part.lowercase2;
transform = "{1, 0, 0, -1, 25, 160}";
},
{
name = _part.lowercase2;
transform = "{1, 0, 0, 1, 25, 340}";
}
);
layerId = "B8B720EE-CA8B-4072-B286-8C23F1A5F625";
paths = (
{
closed = 1;
nodes = (
"85 140 LINE",
"85 360 LINE",
"25 360 LINE",
"25 140 LINE"
);
},
{
closed = 1;
nodes = (
"225 140 LINE",
"225 360 LINE",
"165 360 LINE",
"165 140 LINE"
);
}
);
width = 250;
}
);
leftKerningGroup = o;
rightKerningGroup = o;
rightMetricsKey = "=|";
unicode = 006F;
},
{
glyphname = p;
lastChange = "2019-08-24 01:49:58 +0000";
layers = (
{
components = (
{
name = _part.mid;
transform = "{-1, 0, 0, 1, 240, 0}";
}
);
hints = (
{
origin = "{0, 2}";
scale = "{1, -1}";
type = Corner;
name = _corner.serif;
options = 1;
},
{
origin = "{0, 3}";
type = Corner;
name = _corner.serif;
},
{
origin = "{0, 0}";
scale = "{1, -1}";
type = Corner;
name = _corner.serif;
options = 1;
}
);
layerId = "B8B720EE-CA8B-4072-B286-8C23F1A5F625";
paths = (
{
closed = 1;
nodes = (
"100 -240 LINE",
"100 500 LINE",
"40 500 LINE",
"40 -240 LINE"
);
}
);
width = 265;
}
);
leftKerningGroup = n;
leftMetricsKey = l;
rightMetricsKey = o;
unicode = 0070;
},
{
glyphname = q;
lastChange = "2019-08-24 01:44:41 +0000";
layers = (
{
components = (
{
name = _part.mid;
transform = "{1, 0, 0, 1, 25, 0}";
}
);
hints = (
{
origin = "{0, 0}";
scale = "{1, -1}";
type = Corner;
name = _corner.serif;
options = 1;
},
{
origin = "{0, 1}";
type = Corner;
name = _corner.serif;
},
{
origin = "{0, 3}";
type = Corner;
name = _corner.serif;
}
);
layerId = "B8B720EE-CA8B-4072-B286-8C23F1A5F625";
paths = (
{
closed = 1;
nodes = (
"225 -240 LINE",
"225 500 LINE",
"165 500 LINE",
"165 -240 LINE"
);
}
);
width = 265;
}
);
leftKerningGroup = o;
leftMetricsKey = o;
rightMetricsKey = n;
unicode = 0071;
},
{
glyphname = r;
lastChange = "2019-08-24 05:48:23 +0000";
layers = (
{
hints = (
{
origin = "{0, 4}";
scale = "{1, -1}";
type = Corner;
name = _corner.serif;
options = 1;
},
{
origin = "{0, 5}";
scale = "{-1, -1}";
type = Corner;
name = _corner.serif;
}
);
layerId = "B8B720EE-CA8B-4072-B286-8C23F1A5F625";
paths = (
{
closed = 1;
nodes = (
"140 0 LINE",
"140 16 LINE",
"100 16 LINE",
"100 500 LINE",
"40 500 LINE",
"40 0 LINE"
);
},
{
closed = 1;
nodes = (
"202 408 OFFCURVE",
"216 419 OFFCURVE",
"216 451 CURVE SMOOTH",
"216 484 OFFCURVE",
"201 508 OFFCURVE",
"167 508 CURVE SMOOTH",
"128 508 OFFCURVE",
"102 475 OFFCURVE",
"80 440 CURVE",
"80 414 LINE",
"104 458 OFFCURVE",
"139 491 OFFCURVE",
"169 491 CURVE SMOOTH",
"189 491 OFFCURVE",
"203 477 OFFCURVE",
"194 444 CURVE",
"206 444 LINE",
"206 458 OFFCURVE",
"201 473 OFFCURVE",
"182 473 CURVE SMOOTH",
"166 473 OFFCURVE",
"152 461 OFFCURVE",
"152 441 CURVE SMOOTH",
"152 421 OFFCURVE",
"164 408 OFFCURVE",
"184 408 CURVE"
);
}
);
width = 218;
}
);
leftKerningGroup = n;
leftMetricsKey = n;
rightKerningGroup = r;
unicode = 0072;
},
{
glyphname = s;
lastChange = "2019-08-24 03:17:41 +0000";
layers = (
{
layerId = "B8B720EE-CA8B-4072-B286-8C23F1A5F625";
paths = (
{
closed = 1;
nodes = (
"223 390 LINE SMOOTH",
"223 438 OFFCURVE",
"223 508 OFFCURVE",
"133 508 CURVE SMOOTH",
"41 508 OFFCURVE",
"41 434 OFFCURVE",
"41 405 CURVE SMOOTH",
"41 269 OFFCURVE",
"165 219 OFFCURVE",
"165 110 CURVE SMOOTH",
"165 71 OFFCURVE",
"165 8 OFFCURVE",
"125 8 CURVE SMOOTH",
"85 8 OFFCURVE",
"85 71 OFFCURVE",
"85 110 CURVE SMOOTH",
"85 160 LINE",
"25 160 LINE",
"25 120 LINE SMOOTH",
"25 87 OFFCURVE",
"25 -8 OFFCURVE",
"125 -8 CURVE SMOOTH",
"225 -8 OFFCURVE",
"225 87 OFFCURVE",
"225 120 CURVE SMOOTH",
"225 241 OFFCURVE",
"99 290 OFFCURVE",
"99 413 CURVE SMOOTH",
"99 446 OFFCURVE",
"99 492 OFFCURVE",
"133 492 CURVE SMOOTH",
"165 492 OFFCURVE",
"165 445 OFFCURVE",
"165 390 CURVE SMOOTH",
"165 360 LINE",
"223 360 LINE"
);
}
);
width = 250;
}
);
leftKerningGroup = o;
leftMetricsKey = o;
rightKerningGroup = o;
rightMetricsKey = o;
unicode = 0073;
},
{
glyphname = t;
lastChange = "2019-08-24 03:32:01 +0000";
layers = (
{
layerId = "B8B720EE-CA8B-4072-B286-8C23F1A5F625";
paths = (
{
closed = 1;
nodes = (
"120 140 LINE",
"120 662 LINE",
"60 662 LINE",
"60 140 LINE"
);
},
{
closed = 1;
nodes = (
"204 -8 OFFCURVE",
"204 49 OFFCURVE",
"204 70 CURVE",
"186 70 LINE",
"186 34 OFFCURVE",
"171 14 OFFCURVE",
"155 14 CURVE SMOOTH",
"131 14 OFFCURVE",
"120 58 OFFCURVE",
"120 120 CURVE SMOOTH",
"120 160 LINE",
"60 160 LINE",
"60 130 LINE SMOOTH",
"60 87 OFFCURVE",
"65 -8 OFFCURVE",
"143 -8 CURVE SMOOTH"
);
},
{
closed = 1;
nodes = (
"200 484 LINE",
"200 500 LINE",
"10 500 LINE",
"10 484 LINE"
);
}
);
width = 210;
}
);
unicode = 0074;
},
{
glyphname = u;
lastChange = "2019-08-24 03:14:14 +0000";
layers = (
{
components = (
{
name = _part.lowercase1;
transform = "{-1, 0, 0, -1, 200, 160}";
}
);
hints = (
{
origin = "{0, 0}";
scale = "{1, -1}";
type = Corner;
name = _corner.serif;
options = 1;
},
{
origin = "{0, 2}";
scale = "{1, -1}";
type = Corner;
name = _corner.serif;
options = 1;
},
{
origin = "{0, 2}";
scale = "{-1, 1}";
type = Corner;
name = _corner.serif;
options = 1;
},
{
origin = "{1, 2}";
scale = "{1, -1}";
type = Corner;
name = _corner.serif;
options = 1;
}
);
layerId = "B8B720EE-CA8B-4072-B286-8C23F1A5F625";
paths = (
{
closed = 1;
nodes = (
"240 0 LINE",
"240 500 LINE",
"180 500 LINE",
"180 0 LINE"
);
},
{
closed = 1;
nodes = (
"100 140 LINE",
"100 500 LINE",
"40 500 LINE",
"40 140 LINE"
);
}
);
width = 280;
}
);
leftKerningGroup = n;
leftMetricsKey = l;
rightKerningGroup = n;
rightMetricsKey = n;
unicode = 0075;
},
{
glyphname = v;
lastChange = "2019-08-24 03:33:44 +0000";
layers = (
{
hints = (
{
origin = "{0, 1}";
type = Corner;
name = _corner.serif;
},
{
origin = "{0, 2}";
scale = "{-1, 1}";
type = Corner;
name = _corner.serif;
options = 1;
},
{
origin = "{0, 5}";
scale = "{-1, -1}";
type = Corner;
name = _corner.serif;
},
{
origin = "{0, 6}";
scale = "{1, -1}";
type = Corner;
name = _corner.serif;
options = 1;
}
);
layerId = "B8B720EE-CA8B-4072-B286-8C23F1A5F625";
paths = (
{
closed = 1;
nodes = (
"156 -8 LINE",
"252 500 LINE",
"229 500 LINE",
"159 122 LINE",
"170 122 LINE",
"100 500 LINE",
"34 500 LINE",
"134 -8 LINE"
);
}
);
width = 286;
}
);
leftKerningGroup = v;
rightKerningGroup = v;
rightMetricsKey = "=|";
unicode = 0076;
},
{
glyphname = x;
lastChange = "2019-08-24 03:18:41 +0000";
layers = (
{
hints = (
{
origin = "{0, 3}";
type = Corner;
name = _corner.serif;
},
{
origin = "{0, 4}";
scale = "{-1, 1}";
type = Corner;
name = _corner.serif;
options = 1;
},
{
origin = "{1, 1}";
scale = "{-1, -1}";
type = Corner;
name = _corner.serif;
},
{
origin = "{1, 2}";
scale = "{1, -1}";
type = Corner;
name = _corner.serif;
options = 1;
},
{
origin = "{0, 7}";
type = Corner;
name = _corner.serif;
},
{
origin = "{0, 0}";
scale = "{-1, 1}";
type = Corner;
name = _corner.serif;
options = 1;
},
{
origin = "{1, 3}";
scale = "{-1, -1}";
type = Corner;
name = _corner.serif;
},
{
origin = "{1, 0}";
scale = "{1, -1}";
type = Corner;
name = _corner.serif;
options = 1;
}
);
layerId = "B8B720EE-CA8B-4072-B286-8C23F1A5F625";
paths = (
{
closed = 1;
nodes = (
"56 0 LINE",
"132 240 LINE",
"149 240 LINE",
"232 500 LINE",
"209 500 LINE",
"138 272 LINE",
"120 272 LINE",
"34 0 LINE"
);
},
{
closed = 1;
nodes = (
"240 0 LINE",
"109 500 LINE",
"44 500 LINE",
"176 0 LINE"
);
}
);
width = 274;
}
);
rightKerningGroup = x;
rightMetricsKey = "=|";
unicode = 0078;
},
{
glyphname = y;
lastChange = "2019-08-24 03:13:32 +0000";
layers = (
{
hints = (
{
origin = "{1, 1}";
type = Corner;
name = _corner.serif;
},
{
origin = "{1, 2}";
scale = "{-1, 1}";
type = Corner;
name = _corner.serif;
options = 1;
}
);
layerId = "B8B720EE-CA8B-4072-B286-8C23F1A5F625";
paths = (
{
closed = 1;
nodes = (
"119 -248 OFFCURVE",
"134 -189 OFFCURVE",
"152 -85 CURVE SMOOTH",
"249 484 LINE",
"281 484 LINE",
"281 500 LINE",
"200 500 LINE",
"200 484 LINE",
"228 484 LINE",
"134 -85 LINE SMOOTH",
"118 -181 OFFCURVE",
"101 -231 OFFCURVE",
"66 -231 CURVE SMOOTH",
"50 -231 OFFCURVE",
"27 -221 OFFCURVE",
"27 -199 CURVE",
"23 -199 LINE",
"23 -213 OFFCURVE",
"32 -225 OFFCURVE",
"49 -225 CURVE SMOOTH",
"68 -225 OFFCURVE",
"79 -212 OFFCURVE",
"79 -192 CURVE SMOOTH",
"79 -171 OFFCURVE",
"67 -155 OFFCURVE",
"48 -155 CURVE SMOOTH",
"29 -155 OFFCURVE",
"11 -171 OFFCURVE",
"11 -198 CURVE SMOOTH",
"11 -230 OFFCURVE",
"39 -248 OFFCURVE",
"68 -248 CURVE SMOOTH"
);
},
{
closed = 1;
nodes = (
"176 123 LINE",
"102 500 LINE",
"38 500 LINE",
"147 -38 LINE"
);
}
);
width = 286;
}
);
leftKerningGroup = v;
widthMetricsKey = v;
rightKerningGroup = v;
rightMetricsKey = v;
unicode = 0079;
},
{
glyphname = z;
lastChange = "2019-08-24 02:33:56 +0000";
layers = (
{
layerId = "B8B720EE-CA8B-4072-B286-8C23F1A5F625";
paths = (
{
closed = 1;
nodes = (
"194 0 LINE",
"194 16 LINE",
"68 16 LINE",
"184 486 LINE",
"184 500 LINE",
"24 500 LINE",
"24 484 LINE",
"130 484 LINE",
"14 16 LINE",
"14 0 LINE"
);
}
);
width = 208;
}
);
rightMetricsKey = "=|";
unicode = 007A;
},
{
glyphname = a.single;
lastChange = "2019-08-24 01:44:41 +0000";
layers = (
{
components = (
{
name = _part.mid;
transform = "{1, 0, 0, 1, 25, 0}";
}
);
hints = (
{
origin = "{0, 0}";
scale = "{1, -1}";
type = Corner;
name = _corner.serif;
options = 1;
}
);
layerId = "B8B720EE-CA8B-4072-B286-8C23F1A5F625";
paths = (
{
closed = 1;
nodes = (
"225 0 LINE",
"225 500 LINE",
"165 500 LINE",
"165 0 LINE"
);
}
);
width = 265;
}
);
leftKerningGroup = o;
leftMetricsKey = o;
rightMetricsKey = n;
},
{
glyphname = g.single;
lastChange = "2019-08-24 01:53:29 +0000";
layers = (
{
components = (
{
name = _part.mid;
transform = "{1, 0, 0, 1, 40, 0}";
},
{
name = _part.lowercase2;
transform = "{1, 0, 0, -1, 40, -80}";
}
);
hints = (
{
origin = "{0, 1}";
type = Corner;
name = _corner.serif;
}
);
layerId = "B8B720EE-CA8B-4072-B286-8C23F1A5F625";
paths = (
{
closed = 1;
nodes = (
"240 -100 LINE",
"240 500 LINE",
"180 500 LINE",
"180 -100 LINE"
);
}
);
width = 280;
}
);
leftKerningGroup = o;
},
{
glyphname = a.var;
lastChange = "2019-08-24 01:53:36 +0000";
layers = (
{
components = (
{
name = _part.mid;
piece = {
height = 60.03975;
};
transform = "{1, 0, 0, 1, 25, 0}";
}
);
hints = (
{
origin = "{0, 0}";
scale = "{1, -1}";
type = Corner;
name = _corner.serif;
options = 1;
}
);
layerId = "B8B720EE-CA8B-4072-B286-8C23F1A5F625";
paths = (
{
closed = 1;
nodes = (
"225 0 LINE",
"225 360 LINE",
"165 360 LINE",
"165 0 LINE"
);
},
{
closed = 1;
nodes = (
"225 340 LINE",
"225 380 LINE SMOOTH",
"225 413 OFFCURVE",
"225 508 OFFCURVE",
"129 508 CURVE SMOOTH",
"39 508 OFFCURVE",
"39 423 OFFCURVE",
"39 400 CURVE",
"99 400 LINE",
"99 439 OFFCURVE",
"99 492 OFFCURVE",
"132 492 CURVE SMOOTH",
"165 492 OFFCURVE",
"165 439 OFFCURVE",
"165 390 CURVE SMOOTH",
"165 340 LINE"
);
}
);
width = 265;
}
);
leftKerningGroup = o;
leftMetricsKey = a;
rightMetricsKey = a;
},
{
glyphname = f.var;
lastChange = "2019-08-24 01:59:28 +0000";
layers = (
{
background = {
hints = (
{
origin = "{0, 0}";
scale = "{-1, 1}";
type = Corner;
name = _corner.serif;
options = 1;
},
{
origin = "{0, 3}";
type = Corner;
name = _corner.serif;
}
);
paths = (
{
closed = 1;
nodes = (
"120 0 LINE",
"120 580 LINE",
"60 580 LINE",
"60 0 LINE"
);
},
{
closed = 1;
nodes = (
"10 484 LINE",
"230 484 LINE",
"230 500 LINE",
"10 500 LINE"
);
},
{
closed = 1;
nodes = (
"120 600 LINE SMOOTH",
"120 655 OFFCURVE",
"144 712 OFFCURVE",
"193 712 CURVE SMOOTH",
"230 712 OFFCURVE",
"260 679 OFFCURVE",
"260 640 CURVE",
"266 640 LINE",
"266 654 OFFCURVE",
"259 671 OFFCURVE",
"240 671 CURVE SMOOTH",
"223 671 OFFCURVE",
"212 659 OFFCURVE",
"212 639 CURVE SMOOTH",
"212 618 OFFCURVE",
"224 604 OFFCURVE",
"244 604 CURVE",
"262 604 OFFCURVE",
"276 616 OFFCURVE",
"276 643 CURVE SMOOTH",
"276 682 OFFCURVE",
"247 728 OFFCURVE",
"179 728 CURVE SMOOTH",
"84 728 OFFCURVE",
"60 635 OFFCURVE",
"60 590 CURVE SMOOTH",
"60 560 LINE",
"120 560 LINE"
);
}
);
};
hints = (
{
origin = "{0, 3}";
type = Corner;
name = _corner.serif;
},
{
origin = "{0, 0}";
scale = "{-1, 1}";
type = Corner;
name = _corner.serif;
options = 1;
}
);
layerId = "B8B720EE-CA8B-4072-B286-8C23F1A5F625";
paths = (
{
closed = 1;
nodes = (
"120 0 LINE",
"120 580 LINE",
"60 580 LINE",
"60 0 LINE"
);
},
{
closed = 1;
nodes = (
"10 484 LINE",
"230 484 LINE",
"230 500 LINE",
"10 500 LINE"
);
},
{
closed = 1;
nodes = (
"120 610 LINE SMOOTH",
"120 659 OFFCURVE",
"120 712 OFFCURVE",
"168 712 CURVE SMOOTH",
"216 712 OFFCURVE",
"216 659 OFFCURVE",
"216 610 CURVE",
"276 610 LINE",
"276 649 OFFCURVE",
"276 728 OFFCURVE",
"173 728 CURVE SMOOTH",
"60 728 OFFCURVE",
"60 633 OFFCURVE",
"60 600 CURVE SMOOTH",
"60 560 LINE",
"120 560 LINE"
);
}
);
width = 210;
}
);
leftMetricsKey = f;
rightKerningGroup = f;
rightMetricsKey = f;
},
{
glyphname = jdotless.var;
lastChange = "2019-08-24 01:30:07 +0000";
layers = (
{
hints = (
{
origin = "{0, 2}";
scale = "{1, -1}";
type = Corner;
name = _corner.serif;
options = 1;
}
);
layerId = "B8B720EE-CA8B-4072-B286-8C23F1A5F625";
paths = (
{
closed = 1;
nodes = (
"110 -100 LINE",
"110 500 LINE",
"50 500 LINE",
"50 -100 LINE"
);
},
{
closed = 1;
nodes = (
"110 -248 OFFCURVE",
"110 -153 OFFCURVE",
"110 -120 CURVE SMOOTH",
"110 -80 LINE",
"50 -80 LINE",
"50 -130 LINE SMOOTH",
"50 -179 OFFCURVE",
"50 -232 OFFCURVE",
"7 -232 CURVE SMOOTH",
"-36 -232 OFFCURVE",
"-36 -179 OFFCURVE",
"-36 -120 CURVE SMOOTH",
"-36 -100 LINE",
"-96 -100 LINE",
"-96 -120 LINE SMOOTH",
"-96 -173 OFFCURVE",
"-96 -248 OFFCURVE",
"4 -248 CURVE SMOOTH"
);
}
);
width = 150;
}
);
leftMetricsKey = j;
rightMetricsKey = jdotless;
},
{
glyphname = r.var;
lastChange = "2019-08-24 03:09:39 +0000";
layers = (
{
hints = (
{
origin = "{1, 4}";
scale = "{1, -1}";
type = Corner;
name = _corner.serif;
options = 1;
},
{
origin = "{1, 5}";
scale = "{-1, -1}";
type = Corner;
name = _corner.serif;
}
);
layerId = "B8B720EE-CA8B-4072-B286-8C23F1A5F625";
paths = (
{
closed = 1;
nodes = (
"97 449 OFFCURVE",
"126 477 OFFCURVE",
"140 477 CURVE SMOOTH",
"156 477 OFFCURVE",
"162 460 OFFCURVE",
"162 432 CURVE",
"216 432 LINE",
"216 444 LINE SMOOTH",
"216 477 OFFCURVE",
"203 508 OFFCURVE",
"168 508 CURVE SMOOTH",
"128 508 OFFCURVE",
"95 468 OFFCURVE",
"80 437 CURVE",
"80 414 LINE"
);
},
{
closed = 1;
nodes = (
"140 0 LINE",
"140 16 LINE",
"100 16 LINE",
"100 500 LINE",
"40 500 LINE",
"40 0 LINE"
);
}
);
width = 218;
}
);
leftKerningGroup = n;
leftMetricsKey = r;
rightKerningGroup = r;
rightMetricsKey = r;
},
{
glyphname = y.var;
lastChange = "2019-08-24 01:49:58 +0000";
layers = (
{
components = (
{
name = _part.lowercase2;
transform = "{1, 0, 0, -1, 40, -80}";
},
{
name = _part.lowercase1;
transform = "{-1, 0, 0, -1, 200, 160}";
}
);
hints = (
{
origin = "{1, 3}";
scale = "{1, -1}";
type = Corner;
name = _corner.serif;
options = 1;
},
{
origin = "{0, 2}";
scale = "{1, -1}";
type = Corner;
name = _corner.serif;
options = 1;
},
{
origin = "{0, 1}";
type = Corner;
name = _corner.serif;
}
);
layerId = "B8B720EE-CA8B-4072-B286-8C23F1A5F625";
paths = (
{
closed = 1;
nodes = (
"240 -100 LINE",
"240 500 LINE",
"180 500 LINE",
"180 -100 LINE"
);
},
{
closed = 1;
nodes = (
"40 140 LINE",
"100 140 LINE",
"100 500 LINE",
"40 500 LINE"
);
}
);
width = 280;
}
);
leftKerningGroup = n;
leftMetricsKey = u;
rightMetricsKey = u;
},
{
glyphname = f_l;
lastChange = "2019-08-24 03:08:01 +0000";
layers = (
{
hints = (
{
origin = "{0, 3}";
type = Corner;
name = _corner.serif;
},
{
origin = "{0, 0}";
scale = "{-1, 1}";
type = Corner;
name = _corner.serif;
options = 1;
},
{
origin = "{3, 0}";
scale = "{1, -1}";
type = Corner;
name = _corner.serif;
options = 1;
},
{
origin = "{3, 3}";
scale = "{-1, -1}";
type = Corner;
name = _corner.serif;
}
);
layerId = "B8B720EE-CA8B-4072-B286-8C23F1A5F625";
paths = (
{
closed = 1;
nodes = (
"120 0 LINE",
"120 580 LINE",
"60 580 LINE",
"60 0 LINE"
);
},
{
closed = 1;
nodes = (
"250 484 LINE",
"250 500 LINE",
"10 500 LINE",
"10 484 LINE"
);
},
{
closed = 1;
nodes = (
"120 560 LINE",
"120 600 LINE SMOOTH",
"120 669 OFFCURVE",
"148 709 OFFCURVE",
"196 709 CURVE SMOOTH",
"209 709 OFFCURVE",
"216 707 OFFCURVE",
"233 700 CURVE",
"240 717 LINE",
"221 725 OFFCURVE",
"202 728 OFFCURVE",
"183 728 CURVE SMOOTH",
"77 728 OFFCURVE",
"60 635 OFFCURVE",
"60 590 CURVE SMOOTH",
"60 560 LINE"
);
},
{
closed = 1;
nodes = (
"290 0 LINE",
"290 720 LINE",
"230 720 LINE",
"230 0 LINE"
);
}
);
width = 330;
}
);
leftKerningGroup = f;
leftMetricsKey = f;
rightMetricsKey = l;
},
{
glyphname = f_l.var;
lastChange = "2019-08-24 03:08:01 +0000";
layers = (
{
hints = (
{
origin = "{0, 3}";
type = Corner;
name = _corner.serif;
},
{
origin = "{0, 0}";
scale = "{-1, 1}";
type = Corner;
name = _corner.serif;
options = 1;
},
{
origin = "{3, 0}";
scale = "{1, -1}";
type = Corner;
name = _corner.serif;
options = 1;
},
{
origin = "{3, 3}";
scale = "{-1, -1}";
type = Corner;
name = _corner.serif;
}
);
layerId = "B8B720EE-CA8B-4072-B286-8C23F1A5F625";
paths = (
{
closed = 1;
nodes = (
"120 0 LINE",
"120 580 LINE",
"60 580 LINE",
"60 0 LINE"
);
},
{
closed = 1;
nodes = (
"10 484 LINE",
"250 484 LINE",
"250 500 LINE",
"10 500 LINE"
);
},
{
closed = 1;
nodes = (
"120 610 LINE SMOOTH",
"120 659 OFFCURVE",
"120 712 OFFCURVE",
"175 712 CURVE SMOOTH",
"230 712 OFFCURVE",
"230 659 OFFCURVE",
"230 610 CURVE",
"290 610 LINE",
"290 649 OFFCURVE",
"290 728 OFFCURVE",
"180 728 CURVE SMOOTH",
"60 728 OFFCURVE",
"60 633 OFFCURVE",
"60 600 CURVE SMOOTH",
"60 560 LINE",
"120 560 LINE"
);
},
{
closed = 1;
nodes = (
"290 0 LINE",
"290 720 LINE",
"230 720 LINE",
"230 0 LINE"
);
}
);
width = 330;
}
);
leftKerningGroup = f;
leftMetricsKey = f;
rightMetricsKey = l;
},
{
glyphname = zero;
lastChange = "2019-08-24 06:02:26 +0000";
layers = (
{
components = (
{
name = O;
}
);
layerId = "B8B720EE-CA8B-4072-B286-8C23F1A5F625";
paths = (
{
closed = 1;
nodes = (
"64 140 LINE",
"86 140 LINE",
"224 560 LINE",
"202 560 LINE"
);
}
);
width = 288;
}
);
unicode = 0030;
},
{
glyphname = one;
lastChange = "2019-08-24 01:30:07 +0000";
layers = (
{
layerId = "B8B720EE-CA8B-4072-B286-8C23F1A5F625";
paths = (
{
closed = 1;
nodes = (
"196 0 LINE",
"196 16 LINE",
"136 16 LINE",
"136 710 LINE",
"10 682 LINE",
"10 665 LINE",
"74 679 LINE",
"74 16 LINE",
"14 16 LINE",
"14 0 LINE"
);
}
);
width = 206;
}
);
rightMetricsKey = l;
unicode = 0031;
},
{
glyphname = two;
lastChange = "2019-08-24 01:30:07 +0000";
layers = (
{
components = (
{
name = _part.uppercase2;
transform = "{1, 0, 0, 1, 20, 540}";
}
);
layerId = "B8B720EE-CA8B-4072-B286-8C23F1A5F625";
paths = (
{
closed = 1;
nodes = (
"228 0 LINE",
"228 120 LINE",
"166 120 LINE",
"166 16 LINE",
"82 16 LINE",
"82 83 LINE SMOOTH",
"82 270 OFFCURVE",
"228 338 OFFCURVE",
"228 525 CURVE SMOOTH",
"228 565 LINE",
"166 565 LINE",
"166 538 LINE SMOOTH",
"166 363 OFFCURVE",
"20 295 OFFCURVE",
"20 120 CURVE SMOOTH",
"20 0 LINE"
);
},
{
closed = 1;
nodes = (
"82 492 LINE",
"82 565 LINE",
"20 565 LINE",
"20 492 LINE"
);
}
);
width = 248;
}
);
unicode = 0032;
},
{
glyphname = three;
lastChange = "2019-08-24 02:03:31 +0000";
layers = (
{
components = (
{
name = _part.uppercase2;
transform = "{1, 0, 0, 1, 20, 540}";
},
{
name = _part.uppercase2;
transform = "{1, 0, 0, -1, 20, 160}";
},
{
name = _part.uppercase1;
transform = "{1, 0, 0, -1, 60, 550}";
},
{
name = _part.uppercase1;
transform = "{1, 0, 0, 1, 60, 230}";
}
);
layerId = "B8B720EE-CA8B-4072-B286-8C23F1A5F625";
paths = (
{
closed = 1;
nodes = (
"166 140 LINE",
"228 140 LINE",
"228 250 LINE",
"166 250 LINE"
);
},
{
closed = 1;
nodes = (
"20 140 LINE",
"82 140 LINE",
"82 200 LINE",
"20 200 LINE"
);
}
);
width = 268;
}
);
leftMetricsKey = "=|C";
rightMetricsKey = O;
unicode = 0033;
},
{
glyphname = four;
lastChange = "2019-08-24 02:34:35 +0000";
layers = (
{
hints = (
{
origin = "{1, 4}";
type = Corner;
name = _corner.serif;
},
{
origin = "{1, 0}";
scale = "{-1, 1}";
type = Corner;
name = _corner.serif;
options = 1;
}
);
layerId = "B8B720EE-CA8B-4072-B286-8C23F1A5F625";
paths = (
{
closed = 1;
nodes = (
"236 171 LINE",
"236 187 LINE",
"18 187 LINE",
"186 700 LINE",
"164 700 LINE",
"-10 171 LINE"
);
},
{
closed = 1;
nodes = (
"188 0 LINE",
"188 700 LINE",
"176 700 LINE",
"126 546 LINE",
"126 0 LINE"
);
}
);
width = 246;
}
);
unicode = 0034;
},
{
glyphname = five;
lastChange = "2019-08-24 02:03:31 +0000";
layers = (
{
components = (
{
name = _part.uppercase2;
transform = "{1, 0, 0, -1, 20, 160}";
}
);
layerId = "B8B720EE-CA8B-4072-B286-8C23F1A5F625";
paths = (
{
closed = 1;
nodes = (
"166 140 LINE",
"228 140 LINE",
"228 310 LINE",
"166 310 LINE"
);
},
{
closed = 1;
nodes = (
"20 140 LINE",
"82 140 LINE",
"82 200 LINE",
"20 200 LINE"
);
},
{
closed = 1;
nodes = (
"28 382 LINE",
"70 382 LINE",
"91 416 LINE",
"91 684 LINE",
"228 684 LINE",
"228 700 LINE",
"28 700 LINE"
);
},
{
closed = 1;
nodes = (
"228 290 LINE",
"228 322 LINE SMOOTH",
"228 379 OFFCURVE",
"221 458 OFFCURVE",
"152 458 CURVE SMOOTH",
"107 458 OFFCURVE",
"83 428 OFFCURVE",
"64 382 CURVE",
"77 382 LINE",
"93 407 OFFCURVE",
"113 427 OFFCURVE",
"135 427 CURVE SMOOTH",
"166 427 OFFCURVE",
"166 387 OFFCURVE",
"166 340 CURVE SMOOTH",
"166 290 LINE"
);
}
);
width = 268;
}
);
rightMetricsKey = O;
unicode = 0035;
},
{
glyphname = six;
lastChange = "2019-08-24 02:03:31 +0000";
layers = (
{
components = (
{
name = _part.uppercase2;
transform = "{-1, 0, 0, 1, 248, 540}";
},
{
name = _part.uppercase2;
transform = "{-1, 0, 0, -1, 248, 160}";
}
);
layerId = "B8B720EE-CA8B-4072-B286-8C23F1A5F625";
paths = (
{
closed = 1;
nodes = (
"40 560 LINE",
"40 140 LINE",
"102 140 LINE",
"102 560 LINE"
);
},
{
closed = 1;
nodes = (
"186 270 LINE",
"186 140 LINE",
"248 140 LINE",
"248 270 LINE"
);
},
{
closed = 1;
nodes = (
"248 250 LINE",
"248 282 LINE SMOOTH",
"248 339 OFFCURVE",
"241 418 OFFCURVE",
"172 418 CURVE SMOOTH",
"121 418 OFFCURVE",
"99 376 OFFCURVE",
"86 326 CURVE",
"86 309 LINE",
"103 366 OFFCURVE",
"124 387 OFFCURVE",
"150 387 CURVE SMOOTH",
"186 387 OFFCURVE",
"186 347 OFFCURVE",
"186 300 CURVE SMOOTH",
"186 250 LINE"
);
},
{
closed = 1;
nodes = (
"248 520 LINE",
"248 560 LINE",
"186 560 LINE",
"186 520 LINE"
);
}
);
width = 288;
}
);
leftMetricsKey = O;
rightMetricsKey = O;
unicode = 0036;
},
{
glyphname = seven;
lastChange = "2019-08-24 03:21:18 +0000";
layers = (
{
hints = (
{
origin = "{0, 0}";
scale = "{-1, 1}";
type = Corner;
name = _corner.vertserif;
options = 1;
}
);
layerId = "B8B720EE-CA8B-4072-B286-8C23F1A5F625";
paths = (
{
closed = 1;
nodes = (
"10 684 LINE",
"157 684 LINE",
"34 0 LINE",
"92 0 LINE",
"220 700 LINE",
"10 700 LINE"
);
}
);
width = 230;
}
);
unicode = 0037;
},
{
glyphname = eight;
lastChange = "2019-08-24 02:03:31 +0000";
layers = (
{
components = (
{
name = _part.uppercase2;
transform = "{1, 0, 0, -1, 40, 160}";
},
{
name = _part.uppercase2;
transform = "{1, 0, 0, 1, 40, 250}";
}
);
layerId = "B8B720EE-CA8B-4072-B286-8C23F1A5F625";
paths = (
{
closed = 1;
nodes = (
"248 140 LINE",
"248 270 LINE",
"186 270 LINE",
"186 140 LINE"
);
},
{
closed = 1;
nodes = (
"102 140 LINE",
"102 270 LINE",
"40 270 LINE",
"40 140 LINE"
);
},
{
closed = 1;
nodes = (
"44 530 LINE SMOOTH",
"44 497 OFFCURVE",
"44 402 OFFCURVE",
"144 402 CURVE SMOOTH",
"244 402 OFFCURVE",
"244 497 OFFCURVE",
"244 530 CURVE SMOOTH",
"244 570 LINE",
"182 570 LINE",
"182 520 LINE SMOOTH",
"182 481 OFFCURVE",
"182 418 OFFCURVE",
"144 418 CURVE SMOOTH",
"106 418 OFFCURVE",
"106 481 OFFCURVE",
"106 520 CURVE SMOOTH",
"106 570 LINE",
"44 570 LINE"
);
},
{
closed = 1;
nodes = (
"106 540 LINE",
"106 590 LINE SMOOTH",
"106 629 OFFCURVE",
"106 692 OFFCURVE",
"144 692 CURVE SMOOTH",
"182 692 OFFCURVE",
"182 629 OFFCURVE",
"182 590 CURVE SMOOTH",
"182 540 LINE",
"244 540 LINE",
"244 580 LINE SMOOTH",
"244 613 OFFCURVE",
"244 708 OFFCURVE",
"144 708 CURVE SMOOTH",
"44 708 OFFCURVE",
"44 613 OFFCURVE",
"44 580 CURVE SMOOTH",
"44 540 LINE"
);
}
);
width = 288;
}
);
leftMetricsKey = O;
rightMetricsKey = O;
unicode = 0038;
},
{
glyphname = nine;
lastChange = "2019-08-24 02:03:31 +0000";
layers = (
{
components = (
{
name = _part.uppercase2;
transform = "{1, 0, 0, -1, 40, 160}";
},
{
name = _part.uppercase2;
transform = "{1, 0, 0, 1, 40, 540}";
}
);
layerId = "B8B720EE-CA8B-4072-B286-8C23F1A5F625";
paths = (
{
closed = 1;
nodes = (
"248 140 LINE",
"248 560 LINE",
"186 560 LINE",
"186 140 LINE"
);
},
{
closed = 1;
nodes = (
"102 470 LINE",
"102 560 LINE",
"40 560 LINE",
"40 470 LINE"
);
},
{
closed = 1;
nodes = (
"40 490 LINE",
"40 458 LINE SMOOTH",
"40 401 OFFCURVE",
"47 322 OFFCURVE",
"116 322 CURVE SMOOTH",
"167 322 OFFCURVE",
"189 364 OFFCURVE",
"202 414 CURVE",
"202 431 LINE",
"185 374 OFFCURVE",
"164 353 OFFCURVE",
"138 353 CURVE SMOOTH",
"102 353 OFFCURVE",
"102 393 OFFCURVE",
"102 440 CURVE SMOOTH",
"102 490 LINE"
);
},
{
closed = 1;
nodes = (
"102 140 LINE",
"102 180 LINE",
"40 180 LINE",
"40 140 LINE"
);
}
);
width = 288;
}
);
leftMetricsKey = O;
rightMetricsKey = O;
unicode = 0039;
},
{
glyphname = period;
lastChange = "2019-08-24 02:19:08 +0000";
layers = (
{
layerId = "B8B720EE-CA8B-4072-B286-8C23F1A5F625";
paths = (
{
closed = 1;
nodes = (
"105 -8 OFFCURVE",
"126 13 OFFCURVE",
"126 40 CURVE SMOOTH",
"126 67 OFFCURVE",
"105 88 OFFCURVE",
"78 88 CURVE SMOOTH",
"51 88 OFFCURVE",
"30 67 OFFCURVE",
"30 40 CURVE SMOOTH",
"30 13 OFFCURVE",
"51 -8 OFFCURVE",
"78 -8 CURVE SMOOTH"
);
}
);
width = 156;
}
);
leftKerningGroup = peroid;
rightMetricsKey = "=|";
unicode = 002E;
},
{
glyphname = comma;
lastChange = "2019-08-24 02:18:16 +0000";
layers = (
{
background = {
paths = (
{
closed = 1;
nodes = (
"105 -8 OFFCURVE",
"126 13 OFFCURVE",
"126 40 CURVE SMOOTH",
"126 67 OFFCURVE",
"105 88 OFFCURVE",
"78 88 CURVE SMOOTH",
"51 88 OFFCURVE",
"30 67 OFFCURVE",
"30 40 CURVE SMOOTH",
"30 13 OFFCURVE",
"51 -8 OFFCURVE",
"78 -8 CURVE SMOOTH"
);
}
);
};
layerId = "B8B720EE-CA8B-4072-B286-8C23F1A5F625";
paths = (
{
closed = 1;
nodes = (
"103 30 LINE",
"103 -48 OFFCURVE",
"72 -86 OFFCURVE",
"35 -94 CURVE",
"35 -114 LINE",
"96 -106 OFFCURVE",
"126 -41 OFFCURVE",
"126 22 CURVE SMOOTH",
"126 68 OFFCURVE",
"105 88 OFFCURVE",
"78 88 CURVE SMOOTH",
"51 88 OFFCURVE",
"30 67 OFFCURVE",
"30 40 CURVE SMOOTH",
"30 13 OFFCURVE",
"51 -8 OFFCURVE",
"78 -8 CURVE SMOOTH",
"104 -8 OFFCURVE",
"113 12 OFFCURVE",
"113 30 CURVE"
);
}
);
width = 156;
}
);
leftKerningGroup = peroid;
leftMetricsKey = period;
rightMetricsKey = period;
unicode = 002C;
},
{
glyphname = parenleft;
lastChange = "2019-08-24 01:30:07 +0000";
layers = (
{
layerId = "B8B720EE-CA8B-4072-B286-8C23F1A5F625";
paths = (
{
closed = 1;
nodes = (
"194 -168 LINE",
"105 -44 OFFCURVE",
"80 74 OFFCURVE",
"80 262 CURVE SMOOTH",
"80 450 OFFCURVE",
"105 570 OFFCURVE",
"194 694 CURVE",
"179 707 LINE",
"40 547 OFFCURVE",
"20 380 OFFCURVE",
"20 262 CURVE SMOOTH",
"20 144 OFFCURVE",
"40 -23 OFFCURVE",
"179 -183 CURVE"
);
}
);
width = 210;
}
);
unicode = 0028;
},
{
glyphname = hyphen;
lastChange = "2019-08-24 02:34:02 +0000";
layers = (
{
layerId = "B8B720EE-CA8B-4072-B286-8C23F1A5F625";
paths = (
{
closed = 1;
nodes = (
"20 244 LINE",
"180 244 LINE",
"180 280 LINE",
"20 280 LINE"
);
}
);
width = 200;
}
);
rightMetricsKey = "=|";
unicode = 002D;
},
{
glyphname = dotaccentcomb;
lastChange = "2019-08-24 01:30:07 +0000";
layers = (
{
layerId = "B8B720EE-CA8B-4072-B286-8C23F1A5F625";
paths = (
{
closed = 1;
nodes = (
"70 595 OFFCURVE",
"90 615 OFFCURVE",
"90 640 CURVE SMOOTH",
"90 665 OFFCURVE",
"70 685 OFFCURVE",
"45 685 CURVE SMOOTH",
"20 685 OFFCURVE",
"0 665 OFFCURVE",
"0 640 CURVE SMOOTH",
"0 615 OFFCURVE",
"20 595 OFFCURVE",
"45 595 CURVE"
);
}
);
width = 90;
}
);
unicode = 0307;
},
{
export = 0;
glyphname = _corner.serif;
lastChange = "2019-08-24 01:30:07 +0000";
layers = (
{
anchors = (
{
name = left;
position = "{0, 7}";
},
{
name = origin;
position = "{0, 0}";
},
{
name = right;
position = "{10, 0}";
}
);
layerId = "B8B720EE-CA8B-4072-B286-8C23F1A5F625";
paths = (
{
closed = 0;
nodes = (
"0 16 LINE",
"-30 16 LINE",
"-30 0 LINE",
"15 0 LINE"
);
}
);
width = 25;
}
);
},
{
export = 0;
glyphname = _corner.vertserif;
lastChange = "2019-08-24 01:30:07 +0000";
layers = (
{
anchors = (
{
name = left;
position = "{0, 7}";
},
{
name = origin;
position = "{0, 0}";
},
{
name = right;
position = "{10, 0}";
}
);
layerId = "B8B720EE-CA8B-4072-B286-8C23F1A5F625";
paths = (
{
closed = 0;
nodes = (
"0 24 LINE",
"-60 24 LINE",
"-60 0 LINE",
"15 0 LINE"
);
}
);
width = 25;
}
);
},
{
export = 0;
glyphname = _part.fliga1;
lastChange = "2019-08-24 01:32:58 +0000";
layers = (
{
hints = (
{
origin = "{0, 0}";
scale = "{-1, 1}";
type = Corner;
name = _corner.serif;
options = 1;
},
{
origin = "{0, 3}";
type = Corner;
name = _corner.serif;
}
);
layerId = "B8B720EE-CA8B-4072-B286-8C23F1A5F625";
paths = (
{
closed = 1;
nodes = (
"100 0 LINE",
"100 580 LINE",
"40 580 LINE",
"40 0 LINE"
);
},
{
closed = 1;
nodes = (
"210 484 LINE",
"210 500 LINE",
"-10 500 LINE",
"-10 484 LINE"
);
},
{
closed = 1;
nodes = (
"100 560 LINE",
"100 600 LINE SMOOTH",
"100 655 OFFCURVE",
"124 712 OFFCURVE",
"188 712 CURVE SMOOTH",
"236 712 OFFCURVE",
"266 679 OFFCURVE",
"266 640 CURVE",
"272 640 LINE",
"272 654 OFFCURVE",
"262 685 OFFCURVE",
"237 685 CURVE SMOOTH",
"212 685 OFFCURVE",
"192 665 OFFCURVE",
"192 640 CURVE SMOOTH",
"192 615 OFFCURVE",
"212 595 OFFCURVE",
"238 595 CURVE SMOOTH",
"262 595 OFFCURVE",
"282 613 OFFCURVE",
"282 644 CURVE SMOOTH",
"282 682 OFFCURVE",
"253 728 OFFCURVE",
"175 728 CURVE SMOOTH",
"64 728 OFFCURVE",
"40 635 OFFCURVE",
"40 590 CURVE SMOOTH",
"40 560 LINE"
);
}
);
width = 262;
}
);
},
{
export = 0;
glyphname = _part.fliga2;
lastChange = "2019-08-24 01:30:07 +0000";
layers = (
{
hints = (
{
origin = "{0, 0}";
scale = "{-1, 1}";
type = Corner;
name = _corner.serif;
options = 1;
},
{
origin = "{0, 3}";
type = Corner;
name = _corner.serif;
}
);
layerId = "B8B720EE-CA8B-4072-B286-8C23F1A5F625";
paths = (
{
closed = 1;
nodes = (
"100 0 LINE",
"100 580 LINE",
"40 580 LINE",
"40 0 LINE"
);
},
{
closed = 1;
nodes = (
"210 484 LINE",
"210 500 LINE",
"-10 500 LINE",
"-10 484 LINE"
);
},
{
closed = 1;
nodes = (
"252 680 LINE",
"234 706 OFFCURVE",
"207 728 OFFCURVE",
"160 728 CURVE SMOOTH",
"64 728 OFFCURVE",
"40 635 OFFCURVE",
"40 590 CURVE SMOOTH",
"40 560 LINE",
"100 560 LINE",
"100 600 LINE SMOOTH",
"100 655 OFFCURVE",
"124 709 OFFCURVE",
"174 709 CURVE SMOOTH",
"201 709 OFFCURVE",
"219 694 OFFCURVE",
"238 669 CURVE"
);
}
);
width = 252;
}
);
},
{
export = 0;
glyphname = _part.fligavar1;
lastChange = "2019-08-24 01:37:17 +0000";
layers = (
{
hints = (
{
origin = "{0, 0}";
scale = "{-1, 1}";
type = Corner;
name = _corner.serif;
options = 1;
},
{
origin = "{0, 3}";
type = Corner;
name = _corner.serif;
}
);
layerId = "B8B720EE-CA8B-4072-B286-8C23F1A5F625";
paths = (
{
closed = 1;
nodes = (
"100 0 LINE",
"100 580 LINE",
"40 580 LINE",
"40 0 LINE"
);
},
{
closed = 1;
nodes = (
"-10 484 LINE",
"210 484 LINE",
"210 500 LINE",
"-10 500 LINE"
);
},
{
closed = 1;
nodes = (
"100 610 LINE SMOOTH",
"100 659 OFFCURVE",
"104 712 OFFCURVE",
"159 712 CURVE SMOOTH",
"210 712 OFFCURVE",
"210 665 OFFCURVE",
"210 610 CURVE",
"270 610 LINE",
"270 649 OFFCURVE",
"270 728 OFFCURVE",
"160 728 CURVE SMOOTH",
"40 728 OFFCURVE",
"40 633 OFFCURVE",
"40 600 CURVE SMOOTH",
"40 560 LINE",
"100 560 LINE"
);
}
);
width = 250;
}
);
},
{
export = 0;
glyphname = _part.lowercase1;
lastChange = "2019-08-24 01:30:07 +0000";
layers = (
{
layerId = "B8B720EE-CA8B-4072-B286-8C23F1A5F625";
paths = (
{
closed = 1;
nodes = (
"160 0 LINE",
"160 40 LINE SMOOTH",
"160 85 OFFCURVE",
"155 168 OFFCURVE",
"85 168 CURVE SMOOTH",
"35 168 OFFCURVE",
"13 126 OFFCURVE",
"0 76 CURVE",
"0 59 LINE",
"17 116 OFFCURVE",
"38 137 OFFCURVE",
"64 137 CURVE SMOOTH",
"100 137 OFFCURVE",
"100 97 OFFCURVE",
"100 50 CURVE SMOOTH",
"100 0 LINE"
);
}
);
width = 160;
}
);
},
{
export = 0;
glyphname = _part.lowercase2;
lastChange = "2019-08-24 01:30:07 +0000";
layers = (
{
layerId = "B8B720EE-CA8B-4072-B286-8C23F1A5F625";
paths = (
{
closed = 1;
nodes = (
"60 0 LINE",
"60 50 LINE SMOOTH",
"60 89 OFFCURVE",
"60 152 OFFCURVE",
"100 152 CURVE SMOOTH",
"140 152 OFFCURVE",
"140 89 OFFCURVE",
"140 50 CURVE SMOOTH",
"140 0 LINE",
"200 0 LINE",
"200 40 LINE SMOOTH",
"200 73 OFFCURVE",
"200 168 OFFCURVE",
"100 168 CURVE SMOOTH",
"0 168 OFFCURVE",
"0 73 OFFCURVE",
"0 40 CURVE SMOOTH",
"0 0 LINE"
);
}
);
width = 200;
}
);
},
{
export = 0;
glyphname = _part.mid;
lastChange = "2019-08-24 01:30:07 +0000";
layers = (
{
anchors = (
{
name = height;
position = "{80, 500}";
}
);
components = (
{
name = _part.lowercase1;
transform = "{-1, 0, 0, 1, 160, 340}";
},
{
name = _part.lowercase1;
transform = "{-1, 0, 0, -1, 160, 160}";
}
);
layerId = "B8B720EE-CA8B-4072-B286-8C23F1A5F625";
paths = (
{
closed = 1;
nodes = (
"60 140 LINE",
"60 360 LINE",
"0 360 LINE",
"0 140 LINE"
);
}
);
userData = {
PartSelection = {
height = 2;
};
};
width = 160;
},
{
anchors = (
{
name = height;
position = "{80, 320}";
}
);
associatedMasterId = "B8B720EE-CA8B-4072-B286-8C23F1A5F625";
components = (
{
name = _part.lowercase1;
transform = "{-1, 0, 0, 1, 160, 160}";
},
{
name = _part.lowercase1;
transform = "{-1, 0, 0, -1, 160, 160}";
}
);
layerId = "98FA0C9B-963D-4E92-AD2B-AAEB357B0E02";
name = short;
paths = (
{
closed = 1;
nodes = (
"60 130 LINE",
"60 190 LINE",
"0 190 LINE",
"0 130 LINE"
);
}
);
userData = {
PartSelection = {
height = 1;
};
};
visible = 1;
width = 160;
}
);
partsSettings = (
{
name = height;
bottomName = Low;
bottomValue = 60;
topName = High;
topValue = 100;
}
);
},
{
export = 0;
glyphname = _part.top;
lastChange = "2019-08-24 01:30:07 +0000";
layers = (
{
components = (
{
name = _part.lowercase1;
transform = "{1, 0, 0, 1, 0, 340}";
}
);
hints = (
{
origin = "{0, 3}";
type = Corner;
name = _corner.serif;
},
{
origin = "{0, 0}";
scale = "{-1, 1}";
type = Corner;
name = _corner.serif;
options = 1;
}
);
layerId = "B8B720EE-CA8B-4072-B286-8C23F1A5F625";
paths = (
{
closed = 1;
nodes = (
"160 0 LINE",
"160 360 LINE",
"100 360 LINE",
"100 0 LINE"
);
}
);
width = 160;
}
);
},
{
export = 0;
glyphname = _part.uppercase1;
lastChange = "2019-08-24 01:30:07 +0000";
layers = (
{
layerId = "B8B720EE-CA8B-4072-B286-8C23F1A5F625";
paths = (
{
closed = 1;
nodes = (
"168 0 LINE",
"168 24 LINE SMOOTH",
"168 74 OFFCURVE",
"168 168 OFFCURVE",
"64 168 CURVE SMOOTH",
"0 168 LINE",
"0 152 LINE",
"44 152 LINE SMOOTH",
"106 152 OFFCURVE",
"106 107 OFFCURVE",
"106 30 CURVE SMOOTH",
"106 0 LINE"
);
}
);
width = 168;
}
);
},
{
export = 0;
glyphname = _part.uppercase2;
lastChange = "2019-08-24 01:30:07 +0000";
layers = (
{
layerId = "B8B720EE-CA8B-4072-B286-8C23F1A5F625";
paths = (
{
closed = 1;
nodes = (
"62 0 LINE",
"62 50 LINE SMOOTH",
"62 89 OFFCURVE",
"62 152 OFFCURVE",
"104 152 CURVE SMOOTH",
"146 152 OFFCURVE",
"146 89 OFFCURVE",
"146 50 CURVE SMOOTH",
"146 0 LINE",
"208 0 LINE",
"208 40 LINE SMOOTH",
"208 73 OFFCURVE",
"208 168 OFFCURVE",
"104 168 CURVE SMOOTH",
"0 168 OFFCURVE",
"0 73 OFFCURVE",
"0 40 CURVE SMOOTH",
"0 0 LINE"
);
}
